<svg width="25" height="25" viewBox="0 0 25 25" fill="none" xmlns="http://www.w3.org/2000/svg">
<g clip-path="url(#clip0_561_1262)">
<path d="M21.3389 3.66113C18.9779 1.30029 15.8388 0 12.5 0C9.16118 0 6.02207 1.30024 3.66113 3.66113C1.30029 6.02207 0 9.16118 0 12.5C0 15.8388 1.30024 18.9779 3.66113 21.3389C6.02207 23.6997 9.16118 25 12.5 25C15.8388 25 18.9779 23.6998 21.3389 21.3389C23.6997 18.9779 25 15.8388 25 12.5C25 9.16118 23.6998 6.02207 21.3389 3.66113ZM5.42505 20.9618C5.83784 17.4103 8.89131 14.6683 12.5 14.6683C14.4023 14.6683 16.1913 15.4095 17.5369 16.7549C18.6737 17.8919 19.3907 19.3764 19.5751 20.9616C17.6583 22.567 15.1901 23.5352 12.5 23.5352C9.80986 23.5352 7.34194 22.5672 5.42505 20.9618ZM12.5 13.1595C10.4067 13.1595 8.70342 11.4563 8.70342 9.36299C8.70342 7.26948 10.4067 5.56641 12.5 5.56641C14.5933 5.56641 16.2966 7.26948 16.2966 9.36299C16.2966 11.4563 14.5933 13.1596 12.5 13.1596V13.1595ZM20.8359 19.7233C20.4595 18.2077 19.677 16.8234 18.5726 15.7192C17.6724 14.8189 16.6073 14.1436 15.4457 13.7203C16.8421 12.7733 17.7614 11.1734 17.7614 9.36299C17.7614 6.46191 15.4011 4.10156 12.5 4.10156C9.59893 4.10156 7.23857 6.46191 7.23857 9.36299C7.23857 11.1744 8.15869 12.7749 9.5562 13.7217C8.4875 14.1111 7.49858 14.7133 6.64771 15.506C5.41553 16.6534 4.55991 18.1166 4.16318 19.7222C2.48301 17.7853 1.46484 15.2594 1.46484 12.5C1.46484 6.41519 6.41519 1.46484 12.5 1.46484C18.5848 1.46484 23.5352 6.41519 23.5352 12.5C23.5352 15.2599 22.5166 17.7864 20.8359 19.7233Z" fill="#004AAD"/>
</g>
<defs>
<clipPath id="clip0_561_1262">
<rect width="25" height="25" fill="white"/>
</clipPath>
</defs>
</svg>
