<?xml version="1.0" encoding="UTF-8"?><svg id="Layer_2" xmlns="http://www.w3.org/2000/svg" viewBox="0 0 360 158.31"><defs><style>.cls-1{fill:#fff;}.cls-2{fill:#174fa2;}</style></defs><g id="Layer_1-2"><rect class="cls-2" width="360" height="158.31" rx="14.4" ry="14.4"/><path class="cls-1" d="m116.44,71.09v-18.28h6.25c5.67,0,9.37,3.97,9.37,9.15s-3.7,9.13-9.37,9.13h-6.25Zm2.27-2.03h3.97c4.44,0,7.02-3.18,7.02-7.1s-2.49-7.12-7.02-7.12h-3.97v14.22Z"/><path class="cls-1" d="m134.77,64.45c0-3.84,2.52-6.93,6.55-6.93s6.55,3.1,6.55,6.93-2.52,6.96-6.55,6.96-6.55-3.12-6.55-6.96Zm10.93,0c0-2.69-1.56-5.1-4.38-5.1s-4.41,2.41-4.41,5.1,1.59,5.12,4.41,5.12,4.38-2.41,4.38-5.12Z"/><path class="cls-1" d="m162.67,71.09l-3.45-10.63-3.45,10.63h-2.06l-4.22-13.24h2.14l3.23,10.55,3.48-10.55h1.75l3.48,10.55,3.23-10.55h2.14l-4.22,13.24h-2.06Z"/><path class="cls-1" d="m180.26,71.09v-8.66c0-2.33-1.18-3.07-2.96-3.07-1.62,0-3.15.99-3.92,2.06v9.67h-2.06v-13.24h2.06v1.92c.93-1.1,2.74-2.25,4.71-2.25,2.77,0,4.22,1.4,4.22,4.28v9.29h-2.06Z"/><path class="cls-1" d="m186.42,71.09v-18.28h2.06v18.28h-2.06Z"/><path class="cls-1" d="m191.82,64.45c0-3.84,2.52-6.93,6.55-6.93s6.55,3.1,6.55,6.93-2.52,6.96-6.55,6.96-6.55-3.12-6.55-6.96Zm10.93,0c0-2.69-1.56-5.1-4.38-5.1s-4.41,2.41-4.41,5.1,1.59,5.12,4.41,5.12,4.38-2.41,4.38-5.12Z"/><path class="cls-1" d="m216.53,71.09v-1.51c-1.1,1.21-2.6,1.84-4.38,1.84-2.25,0-4.63-1.51-4.63-4.38s2.38-4.36,4.63-4.36c1.81,0,3.32.58,4.38,1.81v-2.38c0-1.78-1.42-2.79-3.34-2.79-1.59,0-2.88.58-4.06,1.84l-.96-1.42c1.43-1.48,3.12-2.19,5.29-2.19,2.8,0,5.12,1.26,5.12,4.47v9.1h-2.06Zm0-5.29c-.79-1.1-2.19-1.64-3.65-1.64-1.92,0-3.26,1.21-3.26,2.91s1.34,2.88,3.26,2.88c1.45,0,2.85-.55,3.65-1.64v-2.49Z"/><path class="cls-1" d="m232.29,71.09v-1.97c-.99,1.34-2.6,2.3-4.47,2.3-3.45,0-5.89-2.63-5.89-6.93s2.41-6.96,5.89-6.96c1.78,0,3.4.88,4.47,2.33v-7.04h2.06v18.28h-2.06Zm0-9.59c-.74-1.15-2.33-2.14-3.97-2.14-2.66,0-4.25,2.19-4.25,5.12s1.59,5.1,4.25,5.1c1.64,0,3.23-.93,3.97-2.08v-6Z"/><path class="cls-1" d="m244.75,64.45c0-3.84,2.52-6.93,6.55-6.93s6.55,3.1,6.55,6.93-2.52,6.96-6.55,6.96-6.55-3.12-6.55-6.96Zm10.93,0c0-2.69-1.56-5.1-4.38-5.1s-4.41,2.41-4.41,5.1,1.59,5.12,4.41,5.12,4.38-2.41,4.38-5.12Z"/><path class="cls-1" d="m270.13,71.09v-8.66c0-2.33-1.18-3.07-2.96-3.07-1.62,0-3.15.99-3.92,2.06v9.67h-2.06v-13.24h2.06v1.92c.93-1.1,2.74-2.25,4.71-2.25,2.77,0,4.22,1.4,4.22,4.28v9.29h-2.06Z"/><path class="cls-1" d="m283.77,68.32v-8.66h-2.19v-1.81h2.19v-3.62h2.06v3.62h2.69v1.81h-2.69v8.22c0,.99.44,1.7,1.34,1.7.58,0,1.12-.25,1.4-.55l.6,1.54c-.52.49-1.26.85-2.47.85-1.95,0-2.93-1.12-2.93-3.1Z"/><path class="cls-1" d="m300.38,71.09v-8.71c0-2.33-1.21-3.01-2.99-3.01-1.59,0-3.12.99-3.92,2.06v9.67h-2.06v-18.28h2.06v6.96c.93-1.1,2.74-2.25,4.74-2.25,2.77,0,4.22,1.34,4.22,4.22v9.34h-2.06Z"/><path class="cls-1" d="m312.3,57.52c4,0,6.36,3.12,6.36,7.1v.52h-10.72c.16,2.49,1.92,4.58,4.77,4.58,1.51,0,3.04-.6,4.08-1.67l.99,1.34c-1.32,1.32-3.1,2.03-5.26,2.03-3.92,0-6.74-2.82-6.74-6.96,0-3.84,2.74-6.93,6.52-6.93Zm-4.36,6.11h8.69c-.03-1.97-1.34-4.41-4.36-4.41-2.82,0-4.22,2.38-4.33,4.41Z"/><path class="cls-1" d="m128.91,103.97l-1.15-3.15h-8.17l-1.15,3.15h-4.28l7.07-18.28h4.88l7.04,18.28h-4.25Zm-5.23-14.91l-3.04,8.39h6.06l-3.01-8.39Z"/><path class="cls-1" d="m138.25,109.01h-3.48v-18.28h3.48v1.67c1.01-1.29,2.47-2,4.08-2,3.4,0,5.86,2.52,5.86,6.93s-2.47,6.96-5.86,6.96c-1.56,0-3.01-.66-4.08-2.03v6.74Zm2.99-15.51c-1.12,0-2.41.66-2.99,1.51v4.69c.58.82,1.86,1.51,2.99,1.51,2,0,3.34-1.56,3.34-3.86s-1.34-3.84-3.34-3.84Z"/><path class="cls-1" d="m154.28,109.01h-3.48v-18.28h3.48v1.67c1.01-1.29,2.47-2,4.08-2,3.4,0,5.86,2.52,5.86,6.93s-2.47,6.96-5.86,6.96c-1.56,0-3.01-.66-4.08-2.03v6.74Zm2.99-15.51c-1.12,0-2.41.66-2.99,1.51v4.69c.58.82,1.86,1.51,2.99,1.51,2,0,3.34-1.56,3.34-3.86s-1.34-3.84-3.34-3.84Z"/><path class="cls-1" d="m166.83,103.97v-18.28h3.48v18.28h-3.48Z"/><path class="cls-1" d="m179.76,90.4c3.95,0,6.63,2.96,6.63,7.29v.77h-9.84c.22,1.67,1.56,3.07,3.81,3.07,1.23,0,2.69-.49,3.54-1.32l1.53,2.25c-1.34,1.23-3.4,1.84-5.45,1.84-4.03,0-7.07-2.71-7.07-6.96,0-3.84,2.82-6.93,6.85-6.93Zm-3.26,5.7h6.52c-.08-1.26-.96-2.93-3.26-2.93-2.17,0-3.1,1.62-3.26,2.93Z"/><path class="cls-1" d="m196.89,98.43c1.29,1.34,3.29,2.47,5.81,2.47,2.14,0,3.18-1.01,3.18-2.06,0-1.37-1.59-1.84-3.7-2.33-2.99-.69-6.82-1.51-6.82-5.59,0-3.04,2.63-5.51,6.93-5.51,2.9,0,5.32.88,7.12,2.55l-2.16,2.85c-1.48-1.37-3.45-2-5.23-2s-2.69.77-2.69,1.86c0,1.23,1.53,1.62,3.65,2.11,3.01.69,6.85,1.59,6.85,5.65,0,3.34-2.38,5.87-7.32,5.87-3.51,0-6.03-1.18-7.76-2.91l2.14-2.96Z"/><path class="cls-1" d="m212.75,100.68v-6.91h-2.19v-3.04h2.19v-3.62h3.51v3.62h2.69v3.04h-2.69v5.97c0,.82.44,1.45,1.21,1.45.52,0,1.01-.19,1.21-.38l.74,2.63c-.52.47-1.45.85-2.9.85-2.44,0-3.75-1.26-3.75-3.62Z"/><path class="cls-1" d="m220.48,97.33c0-3.75,2.63-6.93,6.99-6.93s7.02,3.18,7.02,6.93-2.63,6.96-7.02,6.96-6.99-3.18-6.99-6.96Zm10.39,0c0-2.06-1.23-3.84-3.4-3.84s-3.37,1.78-3.37,3.84,1.21,3.86,3.37,3.86,3.4-1.78,3.4-3.86Z"/><path class="cls-1" d="m237.06,103.97v-13.24h3.48v1.81c.93-1.18,2.58-2.11,4.22-2.11v3.4c-.25-.05-.58-.08-.96-.08-1.15,0-2.69.63-3.26,1.48v8.74h-3.48Z"/><path class="cls-1" d="m252.92,90.4c3.95,0,6.63,2.96,6.63,7.29v.77h-9.84c.22,1.67,1.56,3.07,3.81,3.07,1.23,0,2.69-.49,3.54-1.32l1.53,2.25c-1.34,1.23-3.4,1.84-5.45,1.84-4.03,0-7.07-2.71-7.07-6.96,0-3.84,2.82-6.93,6.85-6.93Zm-3.26,5.7h6.52c-.08-1.26-.96-2.93-3.26-2.93-2.17,0-3.1,1.62-3.26,2.93Z"/><path class="cls-1" d="m75.33,45.07c.38,6.01-2.28,10.48-7.09,13.79-1.81,1.24-3.91,1.6-6.26,1.42.08-1.1.04-2.22.25-3.3,1.18-6.04,5.91-10.66,11.97-11.78.12-.02.24-.08.35-.13.26,0,.52,0,.78,0Z"/><path class="cls-1" d="m87.35,67.66c-4.98,3.16-7.47,7.56-7.04,13.51.43,5.94,3.57,9.92,8.86,12.47-.32.87-.6,1.7-.94,2.5-1.94,4.55-4.53,8.69-7.93,12.3-2.51,2.66-5.6,3.28-9.05,2.2-1.33-.42-2.63-.93-3.95-1.4-2.75-.99-5.48-.86-8.21.09-1.66.58-3.32,1.17-5.01,1.67-2.02.6-3.86.05-5.57-1.06-1.5-.97-2.71-2.26-3.82-3.63-4.81-5.94-7.92-12.65-9.08-20.23-.72-4.7-.7-9.35,1.1-13.85,2.03-5.09,5.48-8.73,10.79-10.42,2.83-.9,5.64-.77,8.43.19,1.6.55,3.19,1.16,4.78,1.75,1.32.49,2.59.33,3.9-.13,2.37-.83,4.73-1.76,7.17-2.28,5.25-1.12,12.44,1.14,15.58,6.34Z"/></g></svg>