<svg width="15" height="15" viewBox="0 0 15 15" fill="none" xmlns="http://www.w3.org/2000/svg">
<g clip-path="url(#clip0_1621_3241)">
<path d="M7.5 0C3.36437 0 0 3.36437 0 7.5C0 11.6356 3.36437 15 7.5 15C11.6356 15 15 11.6356 15 7.5C15 3.36437 11.6356 0 7.5 0ZM9.81688 7.94188L6.69188 11.0669C6.63391 11.125 6.56503 11.1711 6.4892 11.2025C6.41337 11.2339 6.33208 11.2501 6.24999 11.25C6.1679 11.2501 6.08661 11.2339 6.01078 11.2025C5.93495 11.1711 5.86607 11.125 5.80811 11.0669C5.56374 10.8225 5.56374 10.4275 5.80811 10.1831L8.49126 7.5L5.80813 4.81688C5.56377 4.57251 5.56377 4.1775 5.80813 3.93313C6.0525 3.68877 6.44751 3.68877 6.69188 3.93313L9.81688 7.05814C10.0613 7.30251 10.0613 7.69749 9.81688 7.94188Z" fill="#393939"/>
</g>
<defs>
<clipPath id="clip0_1621_3241">
<rect width="15" height="15" fill="white"/>
</clipPath>
</defs>
</svg>
