<?xml version="1.0" encoding="UTF-8"?>
<svg id="Layer_1" xmlns="http://www.w3.org/2000/svg" version="1.1" viewBox="0 0 20 20">
  <!-- Generator: Adobe Illustrator 30.3.0, SVG Export Plug-In . SVG Version: 2.1.3 Build 182)  -->
  <defs>
    <style>
      .st0 {
        fill: #ab4aee;
      }

      .st1 {
        fill: #e661df;
      }
    </style>
  </defs>
  <path class="st0" d="M2.3,2.2h.2c.3.4-.5,3.1,1.6,3,1.7,0,1.5-1.7,1.5-2.9h5.7c0,.8-.1,2,.4,2.5.5.6,1.6.6,2.2,0,.6-.6.4-1.8.4-2.5,1.3,0,2.5.3,2.5,1.8,0,.7.1,6.2,0,6.3-.2,0-.3,0-.4,0,0-.2,0-3.5,0-4-4.9,0-10,0-14.9,0h-.8s0,5.9,0,5.9c0,.9,0,1.9,0,2.8,0,2.7,2.8,2.2,4.7,2.2h4.7c.5,0,2-.1,2.3.2v.2c-.2.1-.2.2-.4.2-1.5,0-3,0-4.5,0h-3.1c-1.1,0-2.4.2-3.3-.6-.5-.5-.8-1.2-.8-1.9,0-2.5,0-5,0-7.5,0-1.3,0-2.5,0-3.8.1-1.4,1-1.8,2.3-1.9Z"/>
  <path class="st0" d="M20,14.3c-.3-2.2-2.4-3.8-4.6-3.5-2.2.3-3.8,2.4-3.4,4.6.3,2.2,2.4,3.8,4.6,3.5,2.2-.3,3.8-2.4,3.5-4.6ZM17.1,15c-.5.5-1.2,1.3-1.8,1.6-.4,0-.8-.6-1.1-.9-.3-.3-.9-.8-.3-1.3.5-.3.9.6,1.4.8.4,0,1.5-1.7,2.3-2.2,1.4.2-.1,1.6-.6,2Z"/>
  <path class="st0" d="M5.2,2.7c0-1.2.4-2.6-1.2-2.7-1.2.4-1,1.4-1,2.5,0,1.2-.2,2.2,1.3,2.3,1-.3,1-1.1.9-2.1ZM4.6,3.3c0,.4,0,.7-.3,1-.8,0-.7-1.1-.7-1.7,0-.6-.1-1.5.3-2,.3,0,.4,0,.6.3.2.4.1,1.9.1,2.4Z"/>
  <path class="st1" d="M7.5,8c2.5,0,2.9-.4,2.5,2.7,0,.2-.2.3-.4.4-.4,0-2.1,0-2.4-.1-.5-.3-.4-2.2-.1-2.7,0-.1.2-.2.4-.2Z"/>
  <path class="st1" d="M7.2,12.2c.5,0,2.2-.2,2.5.1.5.5.5,2.3,0,2.8-.5,0-2.2.1-2.6-.1-.3-.2-.2-1.5-.2-1.9,0-.4,0-.7.3-1Z"/>
  <path class="st0" d="M13.9,2.6c0-1.2.3-2.8-1.5-2.5-1,.6-.5,1.8-.6,2.9-.1,1.1.2,1.9,1.4,1.8.9-.6.7-1.2.7-2.2ZM13,4.2c-.2,0-.4,0-.5-.1-.2-.4-.2-1.1-.2-1.5,0-.6-.2-1.5.3-2,.7.1.7.7.7,1.3,0,.7.2,1.8-.4,2.4Z"/>
  <path class="st1" d="M3.2,8c.6,0,2.3-.2,2.5.4.2.7.2,1.7,0,2.3,0,.2-.2.3-.4.3-.6,0-1.2,0-1.9,0-.8,0-.8-.9-.8-1.5,0-.6-.1-1.3.5-1.6Z"/>
  <path class="st1" d="M11.5,8c.4,0,2.3-.2,2.5.2.3.6.2,1.7.1,2.4,0,.3-.2.3-.4.5-.6,0-1.6,0-2.1,0-.8,0-.5-2.1-.4-2.6,0-.2.2-.3.4-.4Z"/>
  <path class="st1" d="M3.1,12.2c2.5,0,2.9-.5,2.7,2.2,0,.4,0,.5-.4.8-.4,0-2.3.2-2.5-.1-.4-.5-.4-2.4.1-2.8Z"/>
</svg>