<svg width="34" height="34" viewBox="0 0 34 34" fill="none" xmlns="http://www.w3.org/2000/svg">
<path d="M19.2084 22.2196C19.2003 22.2879 19.2068 22.3572 19.2274 22.4228C19.248 22.4884 19.2823 22.5489 19.3281 22.6003C19.3738 22.6517 19.4299 22.6929 19.4927 22.721C19.5554 22.7492 19.6235 22.7637 19.6923 22.7636H21.2384C21.3573 22.7638 21.4722 22.7204 21.5614 22.6417C21.6505 22.563 21.7077 22.4543 21.7223 22.3363L22.4567 16.4288C22.5034 16.0524 22.4509 15.6704 22.3042 15.3207C22.1575 14.9709 21.9219 14.6657 21.6206 14.4353L19.4467 12.7725L20.3129 8.82705L21.8289 9.84634C22.3121 10.1706 22.9312 10.2092 23.4509 9.94655L27.9082 7.69537C27.9678 7.66524 28.0206 7.62314 28.0633 7.57169C28.106 7.52025 28.1376 7.46057 28.1562 7.39637C28.1748 7.33217 28.18 7.26483 28.1714 7.19854C28.1629 7.13225 28.1408 7.06843 28.1064 7.01107L27.3377 5.7255C27.2756 5.62122 27.1768 5.54389 27.0607 5.50866C26.9446 5.47344 26.8195 5.48287 26.7099 5.5351L22.5726 7.50998L21.2026 6.49713C20.9639 6.32074 20.6875 6.20215 20.3952 6.15068L16.1648 5.40411C15.8704 5.35223 15.5679 5.36987 15.2815 5.45565L12.17 6.69898C11.734 6.8732 11.3637 7.1799 11.1113 7.57583L9.5659 10.0002C9.49827 10.1062 9.47429 10.2343 9.49897 10.3576C9.52366 10.4809 9.59509 10.5898 9.69832 10.6616L10.8185 11.2486C10.8725 11.2861 10.9335 11.3123 10.9979 11.3256C11.0622 11.3389 11.1286 11.3391 11.193 11.326C11.2574 11.313 11.3185 11.287 11.3726 11.2497C11.4267 11.2124 11.4727 11.1646 11.5079 11.109L12.8557 8.97808L15.4168 8.22506L13.006 16.1718L9.11566 19.9584C9.02704 20.0448 8.97467 20.1618 8.96922 20.2854C8.96377 20.4091 9.00564 20.5302 9.08632 20.6241L10.2982 22.0342C10.3413 22.0845 10.3942 22.1254 10.4536 22.1545C10.5131 22.1836 10.5779 22.2003 10.644 22.2035C10.7101 22.2067 10.7762 22.1964 10.8382 22.1732C10.9003 22.15 10.9569 22.1144 11.0046 22.0686L15.1906 18.0551L16.6974 13.9493L19.8984 16.2849L19.2084 22.2196Z" fill="#612D8A"/>
<path d="M19.1348 5.25394C20.5856 5.25394 21.7618 4.07781 21.7618 2.62697C21.7618 1.17613 20.5856 0 19.1348 0C17.6839 0 16.5078 1.17613 16.5078 2.62697C16.5078 4.07781 17.6839 5.25394 19.1348 5.25394Z" fill="#612D8A"/>
<path d="M0 30.1476V33.9986H7.80217V28.9236H1.22401C0.544005 28.9236 0 29.4747 0 30.1476ZM8.51797 27.5206V33.9986H16.3273V26.2966H9.74198C9.06913 26.2966 8.51797 26.8477 8.51797 27.5206ZM17.0431 24.0204V33.9986H24.8524V22.7963H18.2671C17.5943 22.7963 17.0431 23.3475 17.0431 24.0204ZM32.1464 18.1365H26.7922C26.1122 18.1365 25.5682 18.6877 25.5682 19.3605V33.9986H33.3704V19.3605C33.3704 18.6877 32.8192 18.1365 32.1464 18.1365ZM29.9654 12.738C29.9518 12.7835 29.9475 12.8313 29.9526 12.8785C29.9577 12.9257 29.9722 12.9714 29.9952 13.013C30.0181 13.0546 30.0492 13.0912 30.0864 13.1206C30.1237 13.1501 30.1664 13.1718 30.2121 13.1846C30.2579 13.1974 30.3057 13.2009 30.3528 13.1951C30.4 13.1892 30.4455 13.1739 30.4866 13.1503C30.5278 13.1266 30.5639 13.095 30.5928 13.0573C30.6216 13.0196 30.6426 12.9765 30.6547 12.9305L31.1156 11.2785C31.141 11.1873 31.1291 11.0897 31.0827 11.0072C31.0363 10.9247 30.9591 10.864 30.868 10.8383L29.2166 10.3766C29.1252 10.3509 29.0274 10.3627 28.9446 10.4092C28.8619 10.4557 28.801 10.5332 28.7754 10.6246C28.7497 10.716 28.7615 10.8138 28.808 10.8966C28.8545 10.9794 28.932 11.0403 29.0234 11.0659L29.8086 11.2856L24.7837 13.9692C24.7401 13.99 24.7012 14.0195 24.6693 14.0558C24.6374 14.0922 24.6132 14.1346 24.5981 14.1805C24.583 14.2264 24.5774 14.275 24.5816 14.3231C24.5858 14.3713 24.5998 14.4181 24.6226 14.4607C24.6453 14.5034 24.6765 14.541 24.7143 14.5712C24.752 14.6014 24.7954 14.6237 24.842 14.6367C24.8886 14.6497 24.9373 14.6531 24.9852 14.6468C25.0331 14.6404 25.0793 14.6244 25.1209 14.5998L30.203 11.8862L29.9654 12.738Z" fill="#612D8A"/>
</svg>
