<svg width="140" height="140" viewBox="0 0 140 140" fill="none" xmlns="http://www.w3.org/2000/svg">
<circle cx="70" cy="70" r="70" fill="#F44336" fill-opacity="0.04"/>
<circle cx="70.0001" cy="69.9984" r="56.5385" fill="#F44336" fill-opacity="0.08"/>
<circle cx="70.0002" cy="69.9987" r="45.7692" fill="#F44336" fill-opacity="0.2"/>
<path d="M70 35C50.7002 35 35 50.7002 35 70C35 89.2998 50.7002 105 70 105C89.2998 105 105 89.2998 105 70C105 50.7002 89.2998 35 70 35Z" fill="#F44336"/>
<path d="M82.6331 78.5086C83.7733 79.6493 83.7733 81.4924 82.6331 82.6331C82.3625 82.9043 82.041 83.1195 81.6871 83.2661C81.3331 83.4127 80.9537 83.488 80.5705 83.4876C79.8241 83.4876 79.0774 83.2018 78.5086 82.6331L69.7442 73.8682L60.9798 82.6332C60.7093 82.9044 60.3879 83.1195 60.034 83.2662C59.6801 83.4128 59.3008 83.4881 58.9177 83.4877C58.5346 83.4881 58.1552 83.4128 57.8013 83.2662C57.4473 83.1196 57.1259 82.9045 56.8553 82.6332C55.7151 81.4924 55.7151 79.6493 56.8553 78.5086L65.6202 69.7442L56.8552 60.9798C55.7149 59.8391 55.7149 57.996 56.8552 56.8553C57.996 55.7151 59.8391 55.7151 60.9798 56.8553L69.7442 65.6202L78.5086 56.8552C79.6493 55.7149 81.4924 55.7149 82.6331 56.8552C83.7733 57.996 83.7733 59.8391 82.6331 60.9798L73.8682 69.7442L82.6331 78.5086Z" fill="#FAFAFA"/>
</svg>
