<?xml version="1.0" encoding="UTF-8"?><svg id="Layer_2" xmlns="http://www.w3.org/2000/svg" viewBox="0 0 360 158.31"><defs><style>.cls-1{fill:#fff;}.cls-2{fill:#202124;}</style></defs><g id="Layer_1-2"><rect class="cls-2" width="360" height="158.31" rx="14.4" ry="14.4"/><path class="cls-1" d="m53.6,46.27c2.33.42,4.26,1.73,6.27,2.83,9.35,5.15,18.69,10.31,28.03,15.46.18.1.36.21.48.28-3.33,3.33-6.64,6.65-10.02,10.03-9.87-9.1-19.82-18.28-29.81-27.5.97-.69,2.07-.83,3.12-1.12h1.93Z"/><path class="cls-1" d="m45.52,50.19c10.04,9.26,20.03,18.47,29.98,27.65-10.05,10.05-20.06,20.05-30.1,30.08-.61-.94-.89-2.02-1.01-3.15-.04-.36-.04-.73-.04-1.09,0-16.36,0-32.71,0-49.07,0-1.55.29-3.01,1.17-4.43Z"/><path class="cls-1" d="m48.48,110.95c10.07-10.07,20.11-20.11,30.19-30.19,4.02,3.7,8.1,7.47,12.23,11.28-.21.13-.38.25-.55.35-11.14,6.15-22.28,12.29-33.41,18.44-2.8,1.54-5.6,1.64-8.45.12Z"/><path class="cls-1" d="m81.54,77.75c.15-.16.28-.31.43-.46,3.29-3.28,6.58-6.56,9.85-9.86.35-.36.59-.38,1.03-.14,2.93,1.64,5.88,3.24,8.81,4.88,3.45,1.93,4.97,5.22,4.09,8.9-.55,2.27-1.99,3.89-4,5.02-2.2,1.23-4.42,2.43-6.62,3.66-.28.15-.46.19-.72-.05-4.24-3.93-8.49-7.84-12.74-11.77-.04-.04-.07-.1-.12-.18Z"/><path class="cls-1" d="m153.12,50.5c3.23,0,5.48,1.42,7.1,3.42l-1.81,1.12c-1.15-1.48-3.1-2.52-5.29-2.52-4,0-7.04,3.07-7.04,7.43s3.04,7.45,7.04,7.45c2.19,0,4-1.07,4.91-1.97v-3.73h-6.28v-2.03h8.55v6.6c-1.7,1.89-4.19,3.15-7.18,3.15-5.21,0-9.4-3.81-9.4-9.48s4.19-9.45,9.4-9.45Z"/><path class="cls-1" d="m169.67,55.52c4,0,6.36,3.12,6.36,7.1v.52h-10.72c.16,2.49,1.92,4.58,4.77,4.58,1.51,0,3.04-.6,4.08-1.67l.99,1.34c-1.32,1.32-3.1,2.03-5.26,2.03-3.92,0-6.74-2.82-6.74-6.96,0-3.84,2.74-6.93,6.52-6.93Zm-4.36,6.11h8.69c-.03-1.97-1.34-4.41-4.36-4.41-2.82,0-4.22,2.38-4.33,4.41Z"/><path class="cls-1" d="m179.76,66.32v-8.66h-2.19v-1.81h2.19v-3.62h2.06v3.62h2.69v1.81h-2.69v8.22c0,.99.44,1.7,1.34,1.7.58,0,1.12-.25,1.4-.55l.6,1.54c-.52.49-1.26.85-2.47.85-1.95,0-2.93-1.12-2.93-3.1Z"/><path class="cls-1" d="m194.11,52.23c0-.77.63-1.37,1.37-1.37s1.4.6,1.4,1.37-.63,1.4-1.4,1.4-1.37-.63-1.37-1.4Zm.36,16.85v-13.24h2.06v13.24h-2.06Z"/><path class="cls-1" d="m209.57,69.08v-8.66c0-2.33-1.18-3.07-2.96-3.07-1.62,0-3.15.99-3.92,2.06v9.67h-2.06v-13.24h2.06v1.92c.93-1.1,2.74-2.25,4.71-2.25,2.77,0,4.22,1.4,4.22,4.28v9.29h-2.06Z"/><path class="cls-1" d="m222.03,62.45c0-3.84,2.52-6.93,6.55-6.93s6.55,3.1,6.55,6.93-2.52,6.96-6.55,6.96-6.55-3.12-6.55-6.96Zm10.93,0c0-2.69-1.56-5.1-4.38-5.1s-4.41,2.41-4.41,5.1,1.59,5.12,4.41,5.12,4.38-2.41,4.38-5.12Z"/><path class="cls-1" d="m247.41,69.08v-8.66c0-2.33-1.18-3.07-2.96-3.07-1.62,0-3.15.99-3.92,2.06v9.67h-2.06v-13.24h2.06v1.92c.93-1.1,2.74-2.25,4.71-2.25,2.77,0,4.22,1.4,4.22,4.28v9.29h-2.06Z"/><path class="cls-1" d="m152.99,83.38c3.78,0,6.17,1.84,7.56,4l-3.23,1.75c-.85-1.29-2.41-2.3-4.33-2.3-3.32,0-5.73,2.55-5.73,6s2.41,6,5.73,6c1.67,0,3.15-.69,3.95-1.4v-2.22h-4.88v-3.34h8.71v6.99c-1.86,2.08-4.47,3.45-7.78,3.45-5.34,0-9.73-3.73-9.73-9.48s4.38-9.45,9.73-9.45Z"/><path class="cls-1" d="m162.93,95.33c0-3.75,2.63-6.93,6.99-6.93s7.02,3.18,7.02,6.93-2.63,6.96-7.02,6.96-6.99-3.18-6.99-6.96Zm10.39,0c0-2.06-1.23-3.84-3.4-3.84s-3.37,1.78-3.37,3.84,1.21,3.86,3.37,3.86,3.4-1.78,3.4-3.86Z"/><path class="cls-1" d="m178.66,95.33c0-3.75,2.63-6.93,6.99-6.93s7.02,3.18,7.02,6.93-2.63,6.96-7.02,6.96-6.99-3.18-6.99-6.96Zm10.39,0c0-2.06-1.23-3.84-3.4-3.84s-3.37,1.78-3.37,3.84,1.21,3.86,3.37,3.86,3.4-1.78,3.4-3.86Z"/><path class="cls-1" d="m196.52,102.84c1.07,1.18,2.47,1.64,4.14,1.64s3.64-.74,3.64-3.34v-1.34c-1.04,1.32-2.47,2.08-4.08,2.08-3.32,0-5.84-2.33-5.84-6.74s2.49-6.74,5.84-6.74c1.59,0,3.01.69,4.08,2.03v-1.7h3.51v12.33c0,5.04-3.89,6.28-7.15,6.28-2.27,0-4.06-.52-5.7-1.97l1.56-2.52Zm7.78-9.84c-.58-.88-1.84-1.51-2.99-1.51-1.97,0-3.34,1.37-3.34,3.64s1.37,3.65,3.34,3.65c1.15,0,2.41-.66,2.99-1.51v-4.27Z"/><path class="cls-1" d="m211.26,101.96v-18.28h3.48v18.28h-3.48Z"/><path class="cls-1" d="m224.2,88.4c3.95,0,6.63,2.96,6.63,7.29v.77h-9.84c.22,1.67,1.56,3.07,3.81,3.07,1.23,0,2.69-.49,3.54-1.32l1.53,2.25c-1.34,1.23-3.4,1.84-5.45,1.84-4.03,0-7.07-2.71-7.07-6.96,0-3.84,2.82-6.93,6.85-6.93Zm-3.26,5.7h6.52c-.08-1.26-.96-2.93-3.26-2.93-2.17,0-3.1,1.62-3.26,2.93Z"/><path class="cls-1" d="m240.44,101.96v-18.28h8.55c3.97,0,6.14,2.69,6.14,5.89s-2.19,5.84-6.14,5.84h-4.66v6.55h-3.89Zm8.03-14.94h-4.14v5.04h4.14c1.53,0,2.69-.99,2.69-2.52s-1.15-2.52-2.69-2.52Z"/><path class="cls-1" d="m257.46,101.96v-18.28h3.48v18.28h-3.48Z"/><path class="cls-1" d="m272.34,101.96v-1.37c-.9,1.07-2.47,1.7-4.19,1.7-2.11,0-4.6-1.42-4.6-4.38s2.49-4.22,4.6-4.22c1.75,0,3.32.55,4.19,1.62v-1.84c0-1.34-1.15-2.22-2.9-2.22-1.43,0-2.74.52-3.86,1.56l-1.32-2.33c1.62-1.42,3.7-2.08,5.78-2.08,3.01,0,5.78,1.21,5.78,5.01v8.55h-3.48Zm0-4.82c-.58-.77-1.67-1.15-2.8-1.15-1.37,0-2.49.74-2.49,2s1.12,1.95,2.49,1.95c1.12,0,2.22-.38,2.8-1.15v-1.64Z"/><path class="cls-1" d="m279.32,104.02c.3.14.77.22,1.1.22.9,0,1.51-.25,1.84-.96l.49-1.12-5.37-13.43h3.73l3.45,9.21,3.45-9.21h3.75l-6.22,15.4c-.99,2.49-2.74,3.15-5.02,3.21-.41,0-1.29-.08-1.73-.19l.52-3.12Z"/></g></svg>