<?xml version="1.0" encoding="UTF-8"?>
<svg id="Layer_2" data-name="Layer 2" xmlns="http://www.w3.org/2000/svg" xmlns:xlink="http://www.w3.org/1999/xlink" viewBox="0 0 135.11 135.57">
  <defs>
    <style>
      .cls-1 {
        fill: #602976;
      }

      .cls-2 {
        fill: #231f20;
      }

      .cls-3 {
        fill: #fff;
      }

      .cls-4 {
        fill: #f06392;
      }

      .cls-5 {
        fill: url(#linear-gradient);
      }
    </style>
    <linearGradient id="linear-gradient" x1="8.25" y1="67.17" x2="65.66" y2="67.17" gradientTransform="translate(3)" gradientUnits="userSpaceOnUse">
      <stop offset="0" stop-color="#f06492"/>
      <stop offset=".16" stop-color="#c7538a"/>
      <stop offset=".33" stop-color="#a24483"/>
      <stop offset=".5" stop-color="#85397e"/>
      <stop offset=".67" stop-color="#70307a"/>
      <stop offset=".84" stop-color="#642b77"/>
      <stop offset="1" stop-color="#602a77"/>
    </linearGradient>
  </defs>
  <g id="Layer_1-2" data-name="Layer 1">
    <g>
      <path class="cls-1" d="M45.59,121.46l-.17.71c-.57.12-1.04.19-1.4.19s-.92-.04-1.72-.11c-.6-.05-1.14-.07-1.62-.07-.83,0-1.68.07-2.55.22l.17-.68c.83-.08,1.44-.26,1.82-.52.27-.19.51-.51.7-.97.19-.46.63-2.06,1.32-4.8l1.59-6.57.09-.31c-.49-.02-.86-.04-1.1-.04-1.53,0-2.74.17-3.64.5s-1.57.81-2.02,1.44c-.45.63-.67,1.31-.67,2.04,0,.26.04.49.14.71.07.15.25.39.55.72.28.31.42.59.42.84,0,.22-.08.41-.25.57s-.36.24-.59.24c-.35,0-.63-.17-.84-.5-.31-.49-.47-1.11-.47-1.86,0-1.01.31-1.99.94-2.94.62-.95,1.48-1.69,2.57-2.2,1.09-.52,2.42-.78,3.98-.78.74,0,1.93.11,3.56.32,1.16.15,1.99.22,2.52.22s.89-.09,1.1-.26c.21-.17.32-.41.32-.69,0-.06-.01-.17-.04-.35-.02-.16-.04-.26-.04-.31,0-.22.07-.41.22-.56s.33-.22.53-.22c.25,0,.45.09.61.27.16.18.24.43.24.73,0,.63-.33,1.17-1,1.62-.67.45-1.79.68-3.35.68-.56,0-1.16-.02-1.79-.07-.08.3-.34,1.31-.78,3.02l-1.08,4.29-.66,2.61-.68,2.99c.55.07,1.01.1,1.38.1.55,0,1.13-.07,1.73-.21Z"/>
      <path class="cls-1" d="M56.6,111.54l.82-.17-.93,3.14c-.37,1.25-.72,2.68-1.05,4.31-.18.88-.27,1.45-.27,1.71s.1.38.31.38c.13,0,.34-.09.63-.26.51-.31,1-.69,1.47-1.14l.4.48c-.94.86-1.55,1.38-1.81,1.56-.53.36-1.03.63-1.51.81-.31.12-.62.17-.92.17-.22,0-.38-.05-.48-.15s-.16-.24-.16-.43c0-.12.03-.29.1-.51l.5-1.69c-.71.85-1.56,1.58-2.54,2.19-.6.38-1.16.57-1.66.57s-.85-.17-1.1-.51c-.35-.45-.52-1.05-.52-1.78,0-.88.23-1.85.7-2.92.47-1.07,1.09-2.05,1.88-2.92.78-.88,1.61-1.52,2.48-1.93.67-.31,1.53-.47,2.58-.47.26,0,.53.02.81.05l.3-.48ZM55.07,113.43c-.45-.09-.82-.14-1.13-.14-.74,0-1.39.2-1.95.61-.55.41-1.07,1.14-1.54,2.21-.47,1.06-.71,2.12-.71,3.18,0,.56.1.97.29,1.21.19.25.44.37.74.37.57,0,1.18-.31,1.83-.92.65-.61,1.13-1.5,1.44-2.66l1.03-3.87Z"/>
      <path class="cls-1" d="M59,114.82l-.48-.5c.75-.9,1.5-1.57,2.24-1.99s1.39-.64,1.93-.64c.21,0,.37.05.49.16s.18.25.18.45c0,.24-.03.49-.08.74s-.22.85-.5,1.79c1.26-1.26,2.13-2.04,2.59-2.34.78-.5,1.49-.76,2.13-.76.42,0,.78.2,1.07.59.29.4.43,1,.43,1.8,0,2-.62,3.9-1.87,5.7-1.25,1.8-2.62,2.7-4.14,2.7-.59,0-1.19-.16-1.78-.48l-1.06,4.09c-.07.25-.1.45-.1.61,0,.31.12.52.35.66.35.21,1.1.38,2.24.51l-.16.62c-1.33-.11-2.38-.16-3.13-.16s-1.8.05-3.05.16l.16-.62c.63-.07,1.08-.24,1.37-.52.28-.28.51-.78.69-1.5l2.24-9.4c.42-1.75.63-2.73.63-2.92,0-.22-.1-.32-.31-.32-.36,0-1.06.53-2.08,1.6ZM61.51,120.67c.65.65,1.32.98,2,.98.99,0,1.86-.77,2.6-2.32.75-1.54,1.12-3.05,1.12-4.52,0-.47-.1-.83-.31-1.07-.21-.24-.49-.37-.85-.37-.4,0-.84.19-1.34.58-.77.6-1.35,1.2-1.76,1.8-.29.43-.56,1.17-.82,2.23l-.66,2.69Z"/>
    </g>
    <path class="cls-1" d="M122.55,57.79c-5.61,8.06-19.19,8.7-28.28,9.44-.37,14.9.65,30.36-4.44,44.61-4.58,14.5-16.74,25.45-32.33,23.51,11.71-1.03,20.92-6.96,25.49-18.17,5.33-14.49,4.15-34.13,3.77-49.42-6.08.2-11.22.42-15.87,1.25.19-.39.18-1.19-.07-1.55h-5.74c12.74-5.78,28.89-5.74,42.47-5.3,6.92.4,18.65-2.84,14.64-11.82,2.62,1.67,1.92,5.24.37,7.45Z"/>
    <g>
      <path class="cls-1" d="M75.83,43.38h-.47c.03-.27.04-.51.04-.72,0-.78-.2-1.35-.61-1.71s-.91-.54-1.51-.54c-.82,0-1.65.28-2.48.83-.83.55-1.51,1.32-2.04,2.31-.53.99-.79,2.02-.79,3.1s.26,1.9.79,2.41c.52.51,1.11.77,1.76.77.39,0,.76-.05,1.11-.15.35-.1.69-.25,1.01-.45.27-.91.4-1.51.4-1.81,0-.14-.05-.26-.16-.34-.11-.08-.3-.13-.57-.13-.09,0-.32.01-.68.04l.08-.43c.26-.05.52-.07.78-.07.21,0,.47,0,.78.02.24,0,.42,0,.54,0,.21,0,.53-.02.97-.05.23-.02.42-.03.59-.03l-.1.44c-.3,0-.51.06-.63.19-.12.13-.25.47-.39,1.02-.48,1.97-.96,3.4-1.42,4.29-.47.88-1,1.52-1.59,1.9-.6.38-1.24.58-1.93.58-.58,0-1.06-.13-1.41-.4-.36-.26-.54-.54-.54-.83,0-.16.06-.29.17-.4s.24-.16.39-.16c.2,0,.42.14.68.42.29.31.51.52.67.61s.33.14.51.14c.37,0,.69-.14.97-.43.57-.56,1.14-1.86,1.69-3.9-.39.21-.78.37-1.18.47-.4.11-.8.16-1.22.16-1.03,0-1.84-.27-2.43-.81-.79-.72-1.18-1.72-1.18-3,0-1.17.3-2.27.9-3.3.6-1.03,1.43-1.88,2.5-2.54,1.07-.66,2.08-1,3.04-1,.52,0,1.13.08,1.83.24.71.16,1.25.24,1.61.24-.32,1.1-.48,2.1-.48,3Z"/>
      <path class="cls-1" d="M80.48,48.19l.3.31c-.46.51-1,.97-1.62,1.39-.62.42-1.14.63-1.54.63-.18,0-.33-.07-.45-.2-.12-.14-.18-.32-.18-.56,0-.46.18-1.42.54-2.88l.95-3.81c.34-1.38.63-2.3.87-2.77.36-.71.87-1.26,1.54-1.65.66-.39,1.36-.59,2.1-.59.25,0,.45.06.59.18.14.12.21.26.21.43,0,.19-.07.34-.21.46-.14.12-.34.18-.61.18-.18,0-.42-.03-.74-.09-.28-.05-.54-.07-.78-.07s-.42.05-.54.15c-.17.14-.32.43-.46.87s-.36,1.32-.67,2.63l-.88,3.64c-.43,1.82-.65,2.78-.65,2.86,0,.19.07.28.2.28s.32-.08.56-.23c.49-.3.97-.69,1.46-1.15Z"/>
      <path class="cls-1" d="M87.12,42.83l.58-.12-.66,2.2c-.26.87-.51,1.88-.75,3.02-.13.62-.19,1.02-.19,1.2s.07.27.22.27c.09,0,.24-.06.45-.18.36-.21.71-.48,1.04-.8l.28.34c-.67.6-1.09.97-1.28,1.09-.37.25-.73.44-1.07.56-.22.08-.44.12-.65.12-.15,0-.27-.03-.34-.1s-.11-.17-.11-.3c0-.09.02-.21.07-.36l.35-1.18c-.5.6-1.1,1.11-1.8,1.54-.43.27-.82.4-1.18.4s-.6-.12-.78-.36c-.25-.32-.37-.74-.37-1.25,0-.61.17-1.3.5-2.05s.77-1.44,1.33-2.05,1.14-1.07,1.76-1.35c.47-.22,1.08-.33,1.83-.33.19,0,.38.01.57.03l.21-.34ZM86.03,44.16c-.32-.06-.58-.1-.8-.1-.53,0-.99.14-1.38.43-.39.29-.76.8-1.09,1.55-.34.74-.5,1.49-.5,2.23,0,.39.07.68.2.85s.31.26.53.26c.4,0,.84-.22,1.3-.65s.8-1.05,1.02-1.86l.73-2.71Z"/>
      <path class="cls-1" d="M88.92,44.97l-.26-.35c.58-.57,1.13-1,1.65-1.27.52-.27.93-.41,1.23-.41.12,0,.22.03.28.08s.09.12.09.22c0,.12-.05.34-.14.67-.14.49-.23.87-.28,1.15,1.4-1.41,2.47-2.12,3.21-2.12.19,0,.34.05.44.16.1.1.15.27.15.49,0,.24-.09.66-.26,1.24.67-.69,1.25-1.18,1.74-1.46.49-.29.88-.43,1.15-.43.25,0,.44.07.57.21s.2.35.2.64c0,.17-.03.38-.09.62s-.27.96-.64,2.17c-.46,1.5-.69,2.39-.69,2.68,0,.2.08.3.25.3.11,0,.22-.03.32-.1.35-.24.7-.54,1.06-.9l.29.31c-.12.1-.35.3-.69.61-.47.42-.79.68-.97.78-.34.2-.63.3-.86.3-.18,0-.33-.09-.47-.26-.13-.17-.2-.41-.2-.71,0-.28.04-.6.12-.98.08-.37.32-1.21.72-2.51.3-.98.45-1.57.45-1.78,0-.2-.09-.3-.26-.3-.15,0-.34.07-.59.22-.5.3-.92.67-1.26,1.1-.23.3-.44.78-.61,1.43-.39,1.43-.68,2.6-.88,3.5h-1.25l1.31-5.31c.09-.38.14-.6.14-.66,0-.09-.02-.16-.07-.21-.05-.05-.11-.07-.2-.07-.16,0-.4.12-.74.36-.58.41-.99.81-1.25,1.19-.25.38-.47.97-.65,1.76l-.67,2.94h-1.26l.99-4.14c.29-1.2.44-1.85.44-1.95,0-.13-.05-.2-.16-.2-.23,0-.69.33-1.4.99Z"/>
      <path class="cls-1" d="M110.14,39.89c.74,0,1.4.17,2,.51.59.34,1.05.82,1.38,1.45.33.63.49,1.36.49,2.19,0,1.09-.3,2.17-.89,3.24-.59,1.07-1.31,1.88-2.17,2.42-.85.54-1.8.82-2.84.82-1.2,0-2.17-.37-2.91-1.11-.74-.74-1.11-1.72-1.11-2.93s.3-2.28.89-3.36c.59-1.08,1.32-1.89,2.18-2.43.86-.54,1.85-.81,2.98-.81ZM109.5,40.51c-.68,0-1.3.2-1.87.6-.57.4-1.04,1.02-1.4,1.86-.36.84-.54,1.82-.54,2.93,0,1.28.28,2.26.85,2.95.57.69,1.28,1.04,2.12,1.04.63,0,1.23-.21,1.79-.62.56-.41,1.03-1.06,1.4-1.94.37-.88.55-1.9.55-3.05s-.28-2.11-.84-2.78c-.56-.66-1.24-.99-2.06-.99Z"/>
      <path class="cls-1" d="M114.83,45.02l-.3-.3c.75-.71,1.35-1.18,1.79-1.41s.83-.35,1.14-.35c.12,0,.22.03.29.08s.11.11.11.18c0,.05-.01.14-.04.28l-.4,1.75c.6-.65,1.34-1.27,2.24-1.83.48-.3.87-.44,1.18-.44.23,0,.41.07.53.22.13.14.19.35.19.63,0,.18-.03.38-.08.61-.09.38-.34,1.2-.73,2.46-.37,1.18-.56,1.97-.56,2.35,0,.12.02.21.05.27.04.06.08.09.15.09.17,0,.44-.16.8-.49.26-.23.51-.45.77-.64l.22.31c-.54.59-1.1,1.06-1.68,1.42-.37.23-.67.35-.91.35-.22,0-.39-.08-.52-.24-.12-.16-.18-.42-.18-.78,0-.52.32-1.8.97-3.85.2-.73.3-1.15.3-1.28,0-.18-.11-.27-.32-.27-.23,0-.54.12-.9.37-.55.36-1.01.78-1.38,1.27-.23.31-.43.81-.59,1.5l-.71,3.04h-1.31c.25-.87.46-1.7.64-2.5l.78-3.3c.03-.13.04-.23.04-.29,0-.16-.06-.23-.18-.23-.09,0-.23.06-.4.18-.36.24-.7.53-1.02.88Z"/>
    </g>
    <path class="cls-1" d="M64.91,96.33c-4.68,2.06-9.65,3.24-14.76,3.28-2.04.02-3.96-.03-5.9-.53,3.69-.34,7.12-1,10.29-2.69.74-.39,1.6-.96,1.88-1.79l-.02-20.92c0-1.91-1.32-3.51-2.99-4.09-1.31-.45-2.54-.46-3.9-.46-.27-.21-.13-1.67-.09-1.78.05-.13.22-.27.49-.27l21.06.02c.12.69.12,1.3-.04,1.9-.91.07-1.7.01-2.53.26-2.97.88-3.65,3.2-3.43,6.07l-.05,4.3v16.7Z"/>
    <path class="cls-1" d="M7.6,38.57c-.07-.15,4.06-7.62,7-11.68C28.1,8.23,50.81-1.38,73.41,1.07c10.25,1.11,20.11,4.45,28.88,10.1,16.19,10.42,27.28,26.98,30.53,46.22,4.49,26.73-6.96,53.3-29.67,67.49-2.91,1.81-5.73,3.15-8.82,4.79,9.77-2.91,19-9.82,25.49-17.71,6.92-8.42,11.57-18.16,13.81-28.92,1.06-5.08,1.58-10.14,1.48-15.37-.34-15.32-5.75-29.95-15.27-41.86-4.94-6.17-10.94-11.18-17.49-15.33C81.77-2.48,56.13-3.54,34.79,7.97c-9.36,5.05-17.73,12.8-23.59,21.72-16.82,25.63-14.49,60.02,5.61,83.17,6.53,7.52,14.71,13.43,23.74,17.53,5.7,2.58,14.39,5.27,20.63,5.18l-5.16-.98c-9.97-1.77-19.22-5.9-27.48-12.01-12.69-9.37-21.59-23.19-25.25-38.71C.21,70.88.34,57.21,5.16,44.84c.83-2.21,1.79-5.29,2.44-6.27-.2.14-.77.56-.2.35"/>
    <g>
      <g>
        <path class="cls-2" d="M14.05,76.12c-.86-2.72-1.07-5.54-.85-8.36.16-2.26.6-4.53,1.18-6.73,1.33-4.59,3.56-8.62,6.85-12,.36-.39.75-.76,1.14-1.13,1.79-1.62,3.72-3.07,5.76-4.3,4.27-2.55,9.05-4.08,14.08-3.93l4.23.11c-.57-.56-6.06-.5-7.03-.42-3.93.28-7.73,1.26-11.26,2.99-.74.35-1.46.75-2.18,1.17-1.09.65-2.13,1.36-3.11,2.14-.96.75-1.86,1.55-2.71,2.4l-.7.72c-4.81,5.14-7.77,11.87-8.16,18.99-.05.87-.06,1.76-.03,2.65.09,2.78.54,5.48,1.33,8.02,2.7,8.85,9.33,15.96,18.3,19.31,4.12,1.55,8.27,2.23,12.56,1.71l-3.3-.31c-6.49-.62-12.49-3.47-17.2-7.9-3.01-5.02-4.11-10.5-3.7-16.28.58-8.24,4.27-14.99,11.52-18.92-1.88.23-3.3,1.36-4.73,2.57-8.08,6.83-9.98,20.13-5.72,29.88-2.91-3.12-4.26-6.96-4.92-11.23-1.7-11,3.76-21.76,13.49-26.72,6.77-3.45,14.32-3.72,21.27-.76,4.67,1.99,8.15,5.15,11.45,9.07-2.41-4.68-6.56-7.87-11.17-10.11-11.03-5.25-24.07-1.76-31.32,7.94-2.78,3.72-4.45,7.82-5,12.22-.28,2.26-.27,4.59.04,6.99"/>
        <g>
          <path class="cls-2" d="M56.36,43.86c-3.97-.15-7.56,1.47-9.14-3.14l5.22.54c-.91-.75-1.87-.91-3.13-1.33,1.52-.65,3.33-.79,4.67.3,1.12.91,1.87,2.35,2.38,3.63Z"/>
          <path class="cls-2" d="M63.35,58.14l-1.86-1.66c1.61-.87,3.03-.1,4.53.71-.48-.98-1.45-1.38-2.64-1.92,1.54-.75,3.12.35,3.99,1.75l1.29,2.11c-1.76.63-3.8.36-5.31-.99Z"/>
          <path class="cls-2" d="M39.33,38.05c.58-1.79,1.95-1.69,3.36-2.42-.81.03-1.71.17-2.78.35.49-1.25,1.95-1.46,3.19-1.12l2.28.61c-.73.97-1.8,2.34-3.19,2.42l-2.86.16Z"/>
        </g>
      </g>
      <g>
        <path class="cls-5" d="M14.05,76.12c-.86-2.72-1.07-5.54-.85-8.36.16-2.26.6-4.53,1.18-6.73,1.33-4.59,3.56-8.62,6.85-12,.36-.39.75-.76,1.14-1.13,1.79-1.62,3.72-3.07,5.76-4.3,4.27-2.55,9.05-4.08,14.08-3.93l4.23.11c-.57-.56-6.06-.5-7.03-.42-3.93.28-7.73,1.26-11.26,2.99-.74.35-1.46.75-2.18,1.17-1.09.65-2.13,1.36-3.11,2.14-.96.75-1.86,1.55-2.71,2.4l-.7.72c-4.81,5.14-7.77,11.87-8.16,18.99-.05.87-.06,1.76-.03,2.65.09,2.78.54,5.48,1.33,8.02,2.7,8.85,9.33,15.96,18.3,19.31,4.12,1.55,8.27,2.23,12.56,1.71l-3.3-.31c-6.49-.62-12.49-3.47-17.2-7.9-3.01-5.02-4.11-10.5-3.7-16.28.58-8.24,4.27-14.99,11.52-18.92-1.88.23-3.3,1.36-4.73,2.57-8.08,6.83-9.98,20.13-5.72,29.88-2.91-3.12-4.26-6.96-4.92-11.23-1.7-11,3.76-21.76,13.49-26.72,6.77-3.45,14.32-3.72,21.27-.76,4.67,1.99,8.15,5.15,11.45,9.07-2.41-4.68-6.56-7.87-11.17-10.11-11.03-5.25-24.07-1.76-31.32,7.94-2.78,3.72-4.45,7.82-5,12.22-.28,2.26-.27,4.59.04,6.99"/>
        <g>
          <path class="cls-5" d="M56.36,43.86c-3.97-.15-7.56,1.47-9.14-3.14l5.22.54c-.91-.75-1.87-.91-3.13-1.33,1.52-.65,3.33-.79,4.67.3,1.12.91,1.87,2.35,2.38,3.63Z"/>
          <path class="cls-5" d="M63.35,58.14l-1.86-1.66c1.61-.87,3.03-.1,4.53.71-.48-.98-1.45-1.38-2.64-1.92,1.54-.75,3.12.35,3.99,1.75l1.29,2.11c-1.76.63-3.8.36-5.31-.99Z"/>
          <path class="cls-5" d="M39.33,38.05c.58-1.79,1.95-1.69,3.36-2.42-.81.03-1.71.17-2.78.35.49-1.25,1.95-1.46,3.19-1.12l2.28.61c-.73.97-1.8,2.34-3.19,2.42l-2.86.16Z"/>
        </g>
      </g>
    </g>
    <g>
      <path class="cls-4" d="M47.97,89.71l-3.65-.28c-1.41-.11-2.86.83-3.1,2.18-.47,2.61.93,4.87,3.23,6.36-3.13.15-5.61-2.12-5.9-5.26-.28-2.98.53-6.16,2.46-8.58-.41,1.74-1.23,3.17-1.44,4.84-.27,2.16-.21,4.36,1.06,6.13-3.21-11.52,10.11-14.86,5.32-27.78,2.83.82,3.78,6.16,3.34,8.93l-.03.28v.28c-.03.51-.08,1.91.37,2.26l2.11,1.65c-.43.49-.85.9-1.34,1.35-.37.34.17,1.46.35,1.97-.05.15-.49.4-.47.57l.06.8c-.28.19-.85.29-.97.53-.36.74.72,1.92.18,2.9-.21.39-1.03.91-1.57.87Z"/>
      <path class="cls-4" d="M37.27,62.13c-.98,1.44-.38,3.04-.13,4.88-1.39-1.79-2.81-3.36-1.1-5.83.69-1,1.11-2,1.42-3.29,2.41,2.05,3.12,5.28,2.14,8.29-.2.61-.28,1.37-.41,2.05-1.92-1.51-2.02-3.72-1.92-6.11Z"/>
      <path class="cls-4" d="M44.53,63.25c-1.66.2-2.34,1.83-3.23,3.22-.15-1.33.12-2.67.79-3.8.97-1.61,3.31-.75,5.44-2.08,0,5.18-2.01,5.6-5.63,7.99-.25-2.37,1.13-3.69,2.63-5.33Z"/>
      <path class="cls-4" d="M36.77,68.99c-1.98.65-3.8-.15-5.38-1.78.22,1.57,1.78,2.1,3.19,2.83-4.57.99-4.59-3.12-6.23-5.75l1.42.04c3.99.12,4.6,2.31,7,4.67Z"/>
      <path class="cls-4" d="M36.02,73.5c-.3,2.29-2.53,3.39-4.72,2.71-1-.31-1.97-.5-3.06-.68.87-1.53,2.24-3.24,4.18-3.45l3.57-.38c-.75,2.07-2.71,2.75-4.74,3.22,1.68.45,3.1-.34,4.77-1.43Z"/>
      <path class="cls-4" d="M37.2,95.48c-2.26-.98-3.2-3.49-2.83-5.82.82-5.21,5.69-11.48,5.34-17.16l-.1-1.55c2.09,4.24-.98,9.36-2.73,13.38-1.76,3.99-3.11,7.52.32,11.16Z"/>
      <path class="cls-4" d="M32.99,93.11c-1.56-2.76-.51-5.73.65-8.5l3.29-7.83c-.33,3.8-2.54,7.01-3.71,10.6-.5,1.93-.55,3.72-.23,5.73Z"/>
      <path class="cls-4" d="M31.33,93.1c-1.52-1.71-.66-6.31.4-8.08-.72,2.79-1.33,5.3-.4,8.08Z"/>
    </g>
    <path class="cls-3" d="M31.06,72.21l-.06.03-.16-.35.08-.04c.04.12.09.24.14.36Z"/>
  </g>
</svg>