<svg width="20" height="24" viewBox="0 0 20 24" fill="none" xmlns="http://www.w3.org/2000/svg">
<path d="M15.6725 9.76767C16.4747 9.75539 19.3956 9.52863 19.8183 10.12C19.8789 10.4028 19.9666 10.8932 19.9626 11.2896C19.9195 15.0593 20.0989 18.9743 19.8828 22.7166C19.8725 22.9047 19.5152 23.0862 19.3462 23.1516C18.4491 23.1679 15.6366 23.395 15.1032 22.8204C14.8839 21.9055 14.8488 10.5329 15.0928 10.1284C15.2307 9.9 15.4277 9.83451 15.6725 9.76767Z" fill="#B247E2"/>
<path d="M19.2004 1.91934e-05C19.9859 -0.00588309 20.0329 1.35108 19.9883 1.88045C19.9165 2.72089 20.1948 5.7506 19.6422 6.20524C19.0999 6.16719 18.2698 5.39303 17.8145 5.03387C16.667 6.6771 15.6168 7.96156 14.0794 9.24603C11.0206 11.8005 7.53906 13.3921 3.64849 14.1985C2.60388 14.4151 1.33919 14.6347 0.273053 14.5383C0.000338143 14.312 -0.0387397 14.2516 0.0290403 13.9284C0.359966 13.5402 0.92135 13.5488 1.42133 13.445C6.95775 12.2958 12.5117 8.35175 15.5794 3.63248C14.9295 3.37429 13.6153 2.90299 13.7956 2.02291C14.1831 1.53166 18.3081 0.284047 19.2004 1.91934e-05Z" fill="#E661DF"/>
<path d="M8.4415 13.8101C8.48137 13.8071 8.52204 13.805 8.56191 13.8035C9.50366 13.767 12.4684 13.5729 13.084 14.142C13.352 15.137 13.1694 21.2745 13.1718 22.6793C13.1726 22.8702 12.8616 23.0448 12.6909 23.1512C11.8002 23.1915 8.72219 23.3772 8.14407 22.8661C7.59306 21.6778 8.02765 15.9457 7.96944 14.3133C7.96147 14.0833 8.26448 13.9109 8.4415 13.8101Z" fill="#D94EDB"/>
<path d="M1.90819 16.7876C2.66971 16.7761 5.04759 16.5597 5.62412 16.9332C5.85697 17.0838 5.95664 17.2011 6.00289 17.4723C6.11613 18.1426 6.14643 22.5306 5.87212 22.8763C5.66798 23.1339 5.34902 23.147 5.04919 23.1678C4.23503 23.1738 1.89942 23.2777 1.25112 23.0133C1.09323 22.8535 1.04539 22.6652 0.999136 22.4516C0.854805 21.7834 0.736786 17.5633 1.08685 17.0903C1.29338 16.8106 1.59241 16.8147 1.90819 16.7876Z" fill="#E661DF"/>
</svg>
