<svg width="25" height="25" viewBox="0 0 25 25" fill="none" xmlns="http://www.w3.org/2000/svg">
<g clip-path="url(#clip0_567_1305)">
<path d="M21.6548 2.38095H19.0476V0.595238C19.0476 0.437371 18.9849 0.28597 18.8733 0.174341C18.7616 0.0627125 18.6102 0 18.4524 0C18.2945 0 18.1431 0.0627125 18.0315 0.174341C17.9199 0.28597 17.8571 0.437371 17.8571 0.595238V2.38095H7.14286V0.595238C7.14286 0.437371 7.08014 0.28597 6.96852 0.174341C6.85689 0.0627125 6.70549 0 6.54762 0C6.38975 0 6.23835 0.0627125 6.12672 0.174341C6.01509 0.28597 5.95238 0.437371 5.95238 0.595238V2.38095H3.34524C2.45803 2.38095 1.60715 2.7334 0.979798 3.36075C0.352444 3.9881 0 4.83898 0 5.72619V21.6548C0 22.542 0.352444 23.3928 0.979798 24.0202C1.60715 24.6476 2.45803 25 3.34524 25H21.6548C22.542 25 23.3928 24.6476 24.0202 24.0202C24.6476 23.3928 25 22.542 25 21.6548V5.72619C25 4.83898 24.6476 3.9881 24.0202 3.36075C23.3928 2.7334 22.542 2.38095 21.6548 2.38095ZM3.34524 3.57143H21.6548C22.2262 3.57143 22.7743 3.79845 23.1784 4.20254C23.5825 4.60664 23.8095 5.15471 23.8095 5.72619V7.14286H1.19048V5.72619C1.19048 5.15471 1.4175 4.60664 1.82159 4.20254C2.22569 3.79845 2.77376 3.57143 3.34524 3.57143ZM21.6548 23.8095H3.34524C2.77376 23.8095 2.22569 23.5825 1.82159 23.1784C1.4175 22.7743 1.19048 22.2262 1.19048 21.6548V8.33333H23.8095V21.6548C23.8095 22.2262 23.5825 22.7743 23.1784 23.1784C22.7743 23.5825 22.2262 23.8095 21.6548 23.8095Z" fill="#004AAD"/>
</g>
<defs>
<clipPath id="clip0_567_1305">
<rect width="25" height="25" fill="white"/>
</clipPath>
</defs>
</svg>
