<?xml version="1.0" encoding="UTF-8"?>
<svg id="Layer_1" xmlns="http://www.w3.org/2000/svg" version="1.1" viewBox="0 0 20 23">
  <!-- Generator: Adobe Illustrator 30.3.0, SVG Export Plug-In . SVG Version: 2.1.3 Build 182)  -->
  <defs>
    <style>
      .st0 {
        fill: #e661df;
      }
    </style>
  </defs>
  <path class="st0" d="M17.7,0c-.2.1-.4.2-.5.4-2.6,3.3-5.1,6.6-7.8,9.8-1.1,1.3-1.9,2.8-3.1,4-.4.5-1.4.1-2,.1-1.5,0-2.9.3-3.7,1.6-1.1,1.9-.7,4.1,1.1,5.4,3.4,2,7.1-.8,6-4.6-.5-1.6,2.7-3,3.5-3.9,2.9-3.1,5.5-6.6,7-10.6.3-.8.8-2.3-.6-2.3ZM4.4,20.7c-1.4.2-2.7-.7-3-2.1-.2-1.4.7-2.7,2.1-3,1.4-.2,2.7.7,3,2.1.2,1.4-.7,2.7-2.1,3ZM9.9,12.7c-1.3-.3-1-1.1-.1-1.7,1.1.3,1,1.2.1,1.7Z"/>
  <path class="st0" d="M17.1,14.5c-.9-.2-2,0-3,0-.4-.4-1.4-1.6-1.7-1.8-.6.6-1.1,1.2-1.6,1.8.5.5,1.1,1.1,1.5,1.7-.2.8-.4,1.5-.3,2.2.3,2.9,3.4,4.3,5.9,3,3-1.8,2.7-6.1-.8-7.1ZM16.5,20.7c-.9.2-1.8-.1-2.4-.8-.6-.7-.8-1.7-.5-2.5.3-.9,1.1-1.5,2-1.7,1.4-.2,2.7.7,3,2.1.3,1.4-.6,2.7-2,3Z"/>
  <path class="st0" d="M1.9,0c.2,0,.6.1.7.3,2.4,2.9,4.5,5.9,6.9,8.8-.4.5-.9,1-1.3,1.5-.3.4-.5.7-.9,1C6.2,10.1-.3,1.4,1.9,0Z"/>
</svg>