<svg width="34" height="34" viewBox="0 0 34 34" fill="none" xmlns="http://www.w3.org/2000/svg">
<g clip-path="url(#clip0_1575_3246)">
<path d="M17 9.99219C14.2539 9.99219 12.0196 7.75782 12.0196 5.01172C12.0196 2.26562 14.2539 0.03125 17 0.03125C19.7461 0.03125 21.9805 2.26562 21.9805 5.01172C21.9805 7.75782 19.7461 9.99219 17 9.99219ZM0.665811 28.4863C-0.70674 26.108 0.111319 23.0564 2.48973 21.6829C4.91694 20.2828 7.94055 21.1646 9.29311 23.5059C10.6692 25.8879 9.85358 28.9324 7.47019 30.3092C5.08222 31.6863 2.04102 30.8668 0.665811 28.4863ZM26.5299 30.3092C24.1481 28.9332 23.3301 25.8892 24.7069 23.5059C26.0594 21.1646 29.083 20.2827 31.5103 21.6829C33.8887 23.0565 34.7068 26.108 33.3342 28.4863C31.9608 30.8638 28.9212 31.6883 26.5299 30.3092ZM4.07026 18.2987L2.08199 18.1898C2.34071 13.4778 4.85824 9.11596 8.81532 6.52067L9.9087 8.186C6.47782 10.436 4.29591 14.2171 4.07026 18.2987ZM29.9298 18.2987C29.7041 14.2171 27.5222 10.436 24.0913 8.18607L25.1847 6.52073C29.1419 9.11602 31.6593 13.4779 31.9181 18.1898L29.9298 18.2987ZM17 33.9648C14.6304 33.9648 12.3649 33.426 10.2647 32.3647L11.1635 30.5865C14.8016 32.4269 19.1984 32.4269 22.8365 30.5865L23.7353 32.3647C21.6352 33.426 19.3697 33.9648 17 33.9648Z" fill="#612D8A"/>
</g>
<defs>
<clipPath id="clip0_1575_3246">
<rect width="34" height="34" fill="white"/>
</clipPath>
</defs>
</svg>
