<svg width="25" height="25" viewBox="0 0 25 25" fill="none" xmlns="http://www.w3.org/2000/svg">
<path d="M12.5005 14.8522C12.8023 14.8522 13.0609 15.0678 13.0609 15.3264C13.0609 15.585 13.2333 15.7574 13.4919 15.7574C13.7505 15.7574 13.923 15.585 13.923 15.3264C13.923 14.7229 13.4919 14.2488 12.9316 14.0764V13.8178C12.9316 13.5591 12.7592 13.3867 12.5005 13.3867C12.2419 13.3867 12.0695 13.5591 12.0695 13.8178V14.0764C11.5092 14.2488 11.0781 14.766 11.0781 15.3264C11.0781 16.0591 11.7247 16.6626 12.5005 16.6626C12.8023 16.6626 13.0609 16.8781 13.0609 17.1367C13.0609 17.3953 12.8023 17.654 12.5005 17.654C12.1988 17.654 11.9402 17.4384 11.9402 17.1798C11.9402 16.9212 11.7678 16.7488 11.5092 16.7488C11.2505 16.7488 11.0781 16.9212 11.0781 17.1798C11.0781 17.7833 11.5092 18.2574 12.0695 18.4298V18.6884C12.0695 18.9471 12.2419 19.1195 12.5005 19.1195C12.7592 19.1195 12.9316 18.9471 12.9316 18.6884V18.4298C13.4919 18.2574 13.923 17.7402 13.923 17.1798C13.923 16.4471 13.2764 15.8436 12.5005 15.8436C12.1988 15.8436 11.9402 15.6281 11.9402 15.3695C11.9402 15.1109 12.1988 14.8522 12.5005 14.8522Z" fill="#004AAD"/>
<path d="M12.5016 11.9648C10.1309 11.9648 8.23438 13.9045 8.23438 16.2321C8.23438 18.5597 10.174 20.4993 12.5016 20.4993C14.8292 20.4993 16.7689 18.5597 16.7689 16.2321C16.7689 13.9045 14.8723 11.9648 12.5016 11.9648ZM12.5016 19.6804C10.6051 19.6804 9.09644 18.1286 9.09644 16.2752C9.09644 14.4217 10.6482 12.87 12.5016 12.87C14.3551 12.87 15.9068 14.4217 15.9068 16.2752C15.9068 18.1286 14.3982 19.6804 12.5016 19.6804Z" fill="#004AAD"/>
<path d="M24.7414 8.7324L22.7586 2.30998C22.6724 2.09447 22.4569 1.96516 22.1983 2.00826L0.603448 8.68929H0.431034C0.172414 8.68929 0 8.86171 0 9.12033V23.4307C0 23.6893 0.172414 23.8617 0.431034 23.8617H24.569C24.8276 23.8617 25 23.6893 25 23.4307V9.12033C25 8.94791 24.9138 8.7755 24.7414 8.7324ZM22.069 2.95653L23.8362 8.68929H22.8448L22.1983 6.57722C22.1121 6.36171 21.8966 6.2324 21.6379 6.2755C21.2069 6.40481 20.7328 6.36171 20.3448 6.14619C19.9569 5.93067 19.6983 5.58584 19.569 5.15481C19.5259 5.0255 19.4397 4.93929 19.3534 4.89619C19.2672 4.85309 19.1379 4.80998 19.0086 4.85309L6.68103 8.64619H3.53448L22.069 2.95653ZM21.9828 8.68929H9.61207L18.9224 5.84447C19.3966 6.79274 20.4741 7.35309 21.5517 7.22378L21.9828 8.68929ZM24.1379 22.9565H0.862069V9.55136H24.1379V22.9565Z" fill="#004AAD"/>
<path d="M21.0758 10.8881C21.0758 10.6294 20.9034 10.457 20.6448 10.457H4.3517C4.09308 10.457 3.92066 10.6294 3.92066 10.8881C3.92066 11.8363 3.1448 12.5691 2.23963 12.5691C1.98101 12.5691 1.80859 12.7415 1.80859 13.0001V19.4657C1.80859 19.7243 1.98101 19.8967 2.23963 19.8967C3.1879 19.8967 3.92066 20.6725 3.92066 21.5777C3.92066 21.8363 4.09308 22.0088 4.3517 22.0088H20.6879C20.9465 22.0088 21.1189 21.8363 21.1189 21.5777C21.1189 20.6294 21.8948 19.8967 22.8 19.8967C23.0586 19.8967 23.231 19.7243 23.231 19.4657V13.0001C23.231 12.7415 23.0586 12.5691 22.8 12.5691C21.8517 12.5691 21.0758 11.8363 21.0758 10.8881ZM22.3689 19.1208C21.2914 19.2932 20.4724 20.1553 20.3 21.1898H4.73963C4.56721 20.1122 3.70515 19.2932 2.67066 19.1208V13.4312C3.74825 13.2588 4.56721 12.3967 4.73963 11.3622H20.2569C20.4293 12.4398 21.2913 13.2588 22.3258 13.4312V19.1208H22.3689Z" fill="#004AAD"/>
</svg>
