<svg width="140" height="140" viewBox="0 0 140 140" fill="none" xmlns="http://www.w3.org/2000/svg">
<circle cx="70" cy="70" r="70" fill="#6DD176" fill-opacity="0.04"/>
<circle cx="70.0001" cy="69.9984" r="56.5385" fill="#6DD176" fill-opacity="0.08"/>
<circle cx="70.0002" cy="69.9987" r="45.7692" fill="#6DD176" fill-opacity="0.2"/>
<path d="M70.0005 104.998C89.3305 104.998 105 89.328 105 69.998C105 50.6681 89.3305 34.998 70.0005 34.998C50.6705 34.998 35.0005 50.6681 35.0005 69.998C35.0005 89.328 50.6705 104.998 70.0005 104.998Z" fill="#6DD176"/>
<path d="M62.7757 85.8985C62.4592 85.8985 62.1548 85.7767 61.9296 85.5454L51.9531 75.5689C51.4844 75.1002 51.4844 74.3454 51.9531 73.8767L53.6513 72.1724C53.8766 71.9472 54.1748 71.8254 54.4974 71.8254C54.8626 71.8254 55.2035 71.9898 55.4287 72.2759L59.3061 77.1028C59.6439 77.5256 60.0728 77.8667 60.5608 78.1007C61.0487 78.3346 61.5832 78.4555 62.1244 78.4541C63.0861 78.4541 63.9931 78.0767 64.6748 77.395L88.6513 53.4185C88.8766 53.1933 89.1748 53.0654 89.4974 53.0654C89.747 53.0654 89.9844 53.1385 90.1853 53.2846L92.3218 54.8002C92.614 55.0072 92.7905 55.3176 92.8209 55.6706C92.8378 55.8439 92.8154 56.0187 92.7553 56.1821C92.6952 56.3454 92.5991 56.4931 92.474 56.6141L66.3305 82.7576L66.3548 82.782L63.6096 85.5272C63.3844 85.7524 63.0861 85.8802 62.7635 85.8802L62.7757 85.8985Z" fill="white"/>
<path d="M89.4966 54.291L91.6271 55.7823L66.3357 81.0736L64.6314 82.778L64.6618 82.8084L62.7871 84.6954L52.8105 74.7371L54.4966 73.0327L58.374 77.8597C58.8243 78.423 59.3958 78.8776 60.046 79.1895C60.6963 79.5015 61.4085 79.6628 62.1297 79.6614C63.414 79.6614 64.6253 79.1623 65.5323 78.2493L89.5027 54.2788M89.5027 51.8623C88.8818 51.8623 88.2671 52.0997 87.8044 52.5684L63.8279 76.5449C63.3592 77.0136 62.7444 77.251 62.1297 77.251C61.4297 77.251 60.7297 76.9467 60.2549 76.3501L56.3775 71.5232C56.1531 71.2414 55.868 71.014 55.5433 70.8579C55.2186 70.7019 54.8629 70.6214 54.5027 70.6223C53.8879 70.6223 53.2792 70.8536 52.8044 71.3284L51.1062 73.0267C50.656 73.4772 50.4031 74.088 50.4031 74.7249C50.4031 75.3618 50.656 75.9727 51.1062 76.4232L61.0827 86.3997C61.3054 86.6232 61.5701 86.8005 61.8615 86.9215C62.153 87.0425 62.4654 87.1048 62.781 87.1048C63.0965 87.1048 63.409 87.0425 63.7004 86.9215C63.9918 86.8005 64.2565 86.6232 64.4792 86.3997L68.0766 82.8023L68.0523 82.778L93.3436 57.4867C94.3966 56.4336 94.2505 54.6867 93.0331 53.8284L90.8966 52.3127C90.4766 52.0145 89.9897 51.8684 89.5088 51.8684L89.5027 51.8623Z" fill="white"/>
</svg>
