<svg width="20" height="20" viewBox="0 0 20 20" fill="none" xmlns="http://www.w3.org/2000/svg">
<path d="M7.87328 9.41618C9.47662 9.21708 12.0985 9.50642 13.5261 10.3024C13.2551 10.951 12.9706 11.6761 12.6461 12.2915C10.2407 12.6682 7.21893 13.0769 10.2011 15.8295C10.5315 16.1346 10.9084 16.5405 11.2104 16.878C11.0419 17.8663 10.8892 18.7444 10.837 19.7474C9.89612 19.7708 8.90571 19.7586 7.96086 19.7618L3.79651 19.7693C2.51497 19.7708 0.0415316 20.1409 0.00287639 18.342C-0.105743 13.2944 2.86814 9.87552 7.87328 9.41618Z" fill="#AB4AEE"/>
<path d="M8.10788 0.0702497C10.3807 -0.350568 12.5605 1.16292 12.9611 3.43993C13.3617 5.71694 11.8293 7.8838 9.54939 8.26431C7.29783 8.64011 5.1643 7.13055 4.76869 4.88186C4.37308 2.63318 5.8633 0.485788 8.10788 0.0702497Z" fill="#AB4AEE"/>
<path d="M14.9286 10.5236C16.0976 10.5054 16.3959 12.2966 16.8572 13.2178C17.3898 13.3211 17.8819 13.2674 18.4115 13.3097C21.7188 13.5736 19.0036 15.6565 17.9464 16.4993C18.8779 19.8438 18.6598 20.6863 15.2406 18.7231C14.3654 18.5556 10.9894 21.9883 12.0453 17.6437C12.1349 17.2753 12.1872 16.9145 12.2228 16.5371C11.7133 15.8731 10.1029 14.7054 10.3425 13.8625C10.8361 13.2972 12.5502 13.2597 13.397 13.1214C13.9082 12.2785 14.0638 11.0742 14.9286 10.5236Z" fill="#AB4AEE"/>
</svg>
