<?xml version="1.0" encoding="UTF-8"?>
<svg version="1.1" xmlns="http://www.w3.org/2000/svg" width="33" height="38">
<path d="M0 0 C4.62 0 9.24 0 14 0 C14 0.99 14 1.98 14 3 C14.66 3 15.32 3 16 3 C16 6.3 16 9.6 16 13 C17.98 13 19.96 13 22 13 C22.495 25.375 22.495 25.375 23 38 C12.11 38 1.22 38 -10 38 C-10 37.34 -10 36.68 -10 36 C-9.01 36 -8.02 36 -7 36 C-7 30.06 -7 24.12 -7 18 C-5.35 18 -3.7 18 -2 18 C-2 13.05 -2 8.1 -2 3 C-1.34 3 -0.68 3 0 3 C0 2.01 0 1.02 0 0 Z M2 2 C2 2.33 2 2.66 2 3 C5.3 3 8.6 3 12 3 C12 2.67 12 2.34 12 2 C8.7 2 5.4 2 2 2 Z M0 5 C0 15.23 0 25.46 0 36 C0.99 36 1.98 36 3 36 C3 34.35 3 32.7 3 31 C5.64 31 8.28 31 11 31 C11 32.65 11 34.3 11 36 C11.99 36 12.98 36 14 36 C14 25.77 14 15.54 14 5 C9.38 5 4.76 5 0 5 Z M16 15 C16 21.93 16 28.86 16 36 C16.99 36 17.98 36 19 36 C19 29.07 19 22.14 19 15 C18.01 15 17.02 15 16 15 Z M-5 20 C-5 25.28 -5 30.56 -5 36 C-4.01 36 -3.02 36 -2 36 C-2 30.72 -2 25.44 -2 20 C-2.99 20 -3.98 20 -5 20 Z M5 33 C5 33.99 5 34.98 5 36 C6.32 36 7.64 36 9 36 C9 35.01 9 34.02 9 33 C7.68 33 6.36 33 5 33 Z " fill="#919191" transform="translate(10,0)"/>
<path d="M0 0 C1.98 0 3.96 0 6 0 C6 1.98 6 3.96 6 6 C4.02 6 2.04 6 0 6 C0 4.02 0 2.04 0 0 Z M2 2 C2 2.66 2 3.32 2 4 C2.66 4 3.32 4 4 4 C4 3.34 4 2.68 4 2 C3.34 2 2.68 2 2 2 Z " fill="#919191" transform="translate(17,22)"/>
<path d="M0 0 C1.98 0 3.96 0 6 0 C6 1.98 6 3.96 6 6 C4.33388095 6.042721 2.66617115 6.04063832 1 6 C0 5 0 5 -0.0625 2.4375 C-0.041875 1.633125 -0.02125 0.82875 0 0 Z M2 2 C2 2.66 2 3.32 2 4 C2.66 4 3.32 4 4 4 C4 3.34 4 2.68 4 2 C3.34 2 2.68 2 2 2 Z " fill="#919191" transform="translate(17,7)"/>
<path d="M0 0 C1.98 0 3.96 0 6 0 C6 1.65 6 3.3 6 5 C4.02 5 2.04 5 0 5 C0 3.35 0 1.7 0 0 Z " fill="#919191" transform="translate(17,15)"/>
<path d="M0 0 C1.65 0 3.3 0 5 0 C5 1.98 5 3.96 5 6 C3.35 6 1.7 6 0 6 C0 4.02 0 2.04 0 0 Z M2 2 C3 4 3 4 3 4 Z " fill="#919191" transform="translate(11,22)"/>
<path d="M0 0 C1.65 0 3.3 0 5 0 C5 1.98 5 3.96 5 6 C3.35 6 1.7 6 0 6 C0 4.02 0 2.04 0 0 Z M2 2 C3 4 3 4 3 4 Z " fill="#919191" transform="translate(11,7)"/>
<path d="M0 0 C1.65 0 3.3 0 5 0 C5 1.65 5 3.3 5 5 C3.35 5 1.7 5 0 5 C0 3.35 0 1.7 0 0 Z " fill="#919191" transform="translate(11,15)"/>
</svg>
