<?xml version="1.0" encoding="UTF-8"?>
<svg version="1.1" xmlns="http://www.w3.org/2000/svg" width="30" height="33">
<path d="M0 0 C7.34159292 -0.36106195 7.34159292 -0.36106195 9.9375 1.0625 C11.51168665 3.93307565 11.69573087 6.7747472 12 10 C12.9075 9.79375 13.815 9.5875 14.75 9.375 C18.22918398 8.97355569 19.23549917 8.97269939 22 11 C24.3125 13.1875 24.3125 13.1875 26 16 C25.625 19.6875 25.625 19.6875 25 23 C25.66 23.66 26.32 24.32 27 25 C27.125 27.625 27.125 27.625 27 30 C23.28400809 30.20086443 22.22791555 30.1519437 19 28 C17.68 28 16.36 28 15 28 C14.67 29.32 14.34 30.64 14 32 C11.76953125 32.77734375 11.76953125 32.77734375 9 33 C6.76171875 31.12890625 6.76171875 31.12890625 4.6875 28.5625 C3.99011719 27.71816406 3.29273438 26.87382812 2.57421875 26.00390625 C2.05472656 25.34261719 1.53523437 24.68132813 1 24 C1.8671875 22.046875 1.8671875 22.046875 3 20 C5.125 19.25 5.125 19.25 7 19 C7 17.35 7 15.7 7 14 C6.01 14.33 5.02 14.66 4 15 C0.96983561 14.03921617 -0.73814546 13.26185454 -3 11 C-3.26991906 8.31160615 -3.08737357 5.70858064 -3 3 C-1.68 3.33 -0.36 3.66 1 4 C0.67 2.68 0.34 1.36 0 0 Z M4 2 C4.33 3.65 4.66 5.3 5 7 C3.35 7.33 1.7 7.66 0 8 C0 8.99 0 9.98 0 11 C0.98267859 12.20561184 0.98267859 12.20561184 2.84765625 12.09765625 C4.8984375 12.06510417 6.94921875 12.03255208 9 12 C9.04125 10.72125 9.0825 9.4425 9.125 8.125 C9.15980469 7.04605469 9.15980469 7.04605469 9.1953125 5.9453125 C9.18331689 3.76136355 9.18331689 3.76136355 7 2 C6.01 2 5.02 2 4 2 Z M11 13 C8.13617936 15.86382064 8.13524184 18.01036579 8 22 C9.79045494 24.92860404 9.79045494 24.92860404 12 27 C13.98 26.67 15.96 26.34 18 26 C16.38405168 23.95880212 14.7143618 21.95927063 13 20 C12.34 20 11.68 20 11 20 C11.33 18.68 11.66 17.36 12 16 C13.65 16 15.3 16 17 16 C15.68798827 14.43750191 15.68798827 14.43750191 14 13 C13.01 13 12.02 13 11 13 Z M4 23 C5.98 25.31 7.96 27.62 10 30 C10.66 29.67 11.32 29.34 12 29 C11.0479279 27.99403703 10.08812654 26.99538437 9.125 26 C8.32449219 25.1646875 8.32449219 25.1646875 7.5078125 24.3125 C6.08175012 22.78114478 6.08175012 22.78114478 4 23 Z M20 24 C21.36323743 26.0399719 21.36323743 26.0399719 23 28 C23.66 28 24.32 28 25 28 C24.34 26.68 23.68 25.36 23 24 C22.01 24 21.02 24 20 24 Z " fill="#919191" transform="translate(3,0)"/>
</svg>
