<?xml version="1.0" encoding="UTF-8"?>
<svg version="1.1" xmlns="http://www.w3.org/2000/svg" width="21" height="21">
<path d="M0 0 C2.14576637 -0.02685938 4.29162645 -0.04633088 6.4375 -0.0625 C7.63246094 -0.07410156 8.82742188 -0.08570313 10.05859375 -0.09765625 C13 -0 13 -0 14 1 C14.09860131 2.40348735 14.13078937 3.81180477 14.1328125 5.21875 C14.13474609 6.49298828 14.13474609 6.49298828 14.13671875 7.79296875 C14.13285156 8.68628906 14.12898438 9.57960938 14.125 10.5 C14.12886719 11.39332031 14.13273437 12.28664063 14.13671875 13.20703125 C14.13542969 14.05652344 14.13414063 14.90601563 14.1328125 15.78125 C14.13168457 16.56564453 14.13055664 17.35003906 14.12939453 18.15820312 C14 20 14 20 13 21 C11.02486333 21.15126231 9.04321865 21.22173766 7.0625 21.25 C5.98097656 21.27578125 4.89945313 21.3015625 3.78515625 21.328125 C2.40650391 21.16570313 2.40650391 21.16570313 1 21 C-1 18 -1 18 -1 14 C-0.01 14 0.98 14 2 14 C2.33 15.32 2.66 16.64 3 18 C5.64 18 8.28 18 11 18 C11 13.05 11 8.1 11 3 C8.36 3 5.72 3 3 3 C2.67 4.32 2.34 5.64 2 7 C1.01 7 0.02 7 -1 7 C-0.67 4.69 -0.34 2.38 0 0 Z " fill="#000000" transform="translate(7,0)"/>
<path d="M0 0 C0 0.99 0 1.98 0 3 C2.97 3 5.94 3 9 3 C9 3.99 9 4.98 9 6 C6.03 6 3.06 6 0 6 C0 6.99 0 7.98 0 9 C-2.51570636 8.02617818 -3.73944098 7.53848865 -4.9375 5.0625 C-5 3 -5 3 -3.6875 1.25 C-2 0 -2 0 0 0 Z " fill="#000000" transform="translate(5,6)"/>
</svg>
