<?xml version="1.0" encoding="UTF-8"?>
<svg version="1.1" xmlns="http://www.w3.org/2000/svg" width="24" height="27">
<path d="M0 0 C1.91015625 0.48046875 1.91015625 0.48046875 4.47265625 2.54296875 C6.3464113 6.37194647 6.03978326 8.41381151 4.91015625 12.48046875 C3.34765625 14.41796875 3.34765625 14.41796875 1.91015625 15.48046875 C2.85890625 15.91359375 3.80765625 16.34671875 4.78515625 16.79296875 C7.91015625 18.48046875 7.91015625 18.48046875 9.91015625 21.48046875 C9.91015625 23.46046875 9.91015625 25.44046875 9.91015625 27.48046875 C1.99015625 27.48046875 -5.92984375 27.48046875 -14.08984375 27.48046875 C-14.08984375 21.48046875 -14.08984375 21.48046875 -11.77734375 18.66796875 C-9.08984375 16.48046875 -9.08984375 16.48046875 -6.08984375 15.48046875 C-6.56421875 15.12984375 -7.03859375 14.77921875 -7.52734375 14.41796875 C-9.88244081 11.4976484 -10.02595792 9.1858468 -10.08984375 5.48046875 C-7.72833365 0.65477419 -5.11395668 -0.35367551 0 0 Z M-5.90234375 3.66796875 C-7.3508771 5.47848082 -7.3508771 5.47848082 -6.90234375 8.04296875 C-6.24357342 10.62488147 -6.24357342 10.62488147 -4.08984375 12.48046875 C-0.79269582 12.15075396 0.53284015 11.85778485 2.91015625 9.48046875 C2.58044146 6.18332082 2.28747235 4.85778485 -0.08984375 2.48046875 C-3.89334749 2.11511791 -3.89334749 2.11511791 -5.90234375 3.66796875 Z M-11.08984375 22.48046875 C-11.41984375 23.47046875 -11.74984375 24.46046875 -12.08984375 25.48046875 C-5.48984375 25.48046875 1.11015625 25.48046875 7.91015625 25.48046875 C5.40959032 20.50425132 5.40959032 20.50425132 1.91015625 18.48046875 C-3.91686659 17.91656331 -6.8799516 18.01543162 -11.08984375 22.48046875 Z " fill="#919191" transform="translate(14.08984375,-0.48046875)"/>
</svg>
