<?xml version="1.0" encoding="UTF-8"?>
<svg version="1.1" xmlns="http://www.w3.org/2000/svg" width="34" height="35">
<path d="M0 0 C2.17607199 0.2512578 3.79556859 -0.2370745 5.89453125 -0.78125 C8.89453125 1.21875 8.89453125 1.21875 10.33203125 3.78125 C11.65206221 6.37815563 11.65206221 6.37815563 14.08203125 7.03125 C14.68015625 7.093125 15.27828125 7.155 15.89453125 7.21875 C18.34614415 21.31552419 18.34614415 21.31552419 15.89453125 26.21875 C15.06953125 26.5075 14.24453125 26.79625 13.39453125 27.09375 C12.56953125 27.465 11.74453125 27.83625 10.89453125 28.21875 C10.75015625 28.87875 10.60578125 29.53875 10.45703125 30.21875 C10.27140625 30.87875 10.08578125 31.53875 9.89453125 32.21875 C5.49106414 34.36928045 2.59460516 34.13832968 -2.10546875 33.21875 C-3.18828125 33.4971875 -3.18828125 33.4971875 -4.29296875 33.78125 C-4.89109375 33.925625 -5.48921875 34.07 -6.10546875 34.21875 C-9.10546875 32.21875 -9.10546875 32.21875 -10.54296875 29.65625 C-11.86299971 27.05934437 -11.86299971 27.05934437 -14.29296875 26.40625 C-15.19015625 26.3134375 -15.19015625 26.3134375 -16.10546875 26.21875 C-17.17355249 19.94375803 -18.14914714 13.34978517 -16.10546875 7.21875 C-15.28046875 6.909375 -14.45546875 6.6 -13.60546875 6.28125 C-12.78046875 5.930625 -11.95546875 5.58 -11.10546875 5.21875 C-10.73336455 3.89571283 -10.39916702 2.56137065 -10.10546875 1.21875 C-6.88644499 -1.48522996 -3.85417407 -0.62925291 0 0 Z M-8.10546875 3.21875 C-8.83240779 5.19763961 -9.50363126 7.19829558 -10.10546875 9.21875 C-11.42546875 9.21875 -12.74546875 9.21875 -14.10546875 9.21875 C-14.69616889 11.16478274 -14.69616889 11.16478274 -15.10546875 13.21875 C-14.77546875 13.54875 -14.44546875 13.87875 -14.10546875 14.21875 C-13.87017463 19.74816176 -13.87017463 19.74816176 -15.10546875 22.21875 C-14.77546875 22.87875 -14.44546875 23.53875 -14.10546875 24.21875 C-12.78546875 24.21875 -11.46546875 24.21875 -10.10546875 24.21875 C-9.77546875 25.20875 -9.44546875 26.19875 -9.10546875 27.21875 C-8.44546875 27.21875 -7.78546875 27.21875 -7.10546875 27.21875 C-6.77546875 28.53875 -6.44546875 29.85875 -6.10546875 31.21875 C-4.14721002 31.24569851 -2.18884649 31.26512218 -0.23046875 31.28125 C0.86007813 31.29285156 1.950625 31.30445312 3.07421875 31.31640625 C5.84630671 31.41619303 5.84630671 31.41619303 7.89453125 30.21875 C8.36890625 29.39375 8.84328125 28.56875 9.33203125 27.71875 C10.89453125 25.21875 10.89453125 25.21875 13.89453125 24.21875 C14.71832685 22.25746245 14.71832685 22.25746245 14.89453125 20.21875 C14.56453125 19.88875 14.23453125 19.55875 13.89453125 19.21875 C13.65923713 13.68933824 13.65923713 13.68933824 14.89453125 11.21875 C13.5033138 8.4363151 11.59288913 7.66664935 8.89453125 6.21875 C8.23453125 6.21875 7.57453125 6.21875 6.89453125 6.21875 C6.89453125 4.89875 6.89453125 3.57875 6.89453125 2.21875 C4.76959984 2.19181425 2.64457213 2.17238372 0.51953125 2.15625 C-1.25550781 2.13884766 -1.25550781 2.13884766 -3.06640625 2.12109375 C-6.02468396 2.00408407 -6.02468396 2.00408407 -8.10546875 3.21875 Z " fill="#919191" transform="translate(17.10546875,0.78125)"/>
<path d="M0 0 C3.46620794 1.38648318 4.7385818 2.62530059 6.875 5.6875 C8.27435017 9.80780885 8.41921567 12.86982746 7 17 C4.80742191 19.64233769 3.06660382 21.46669809 0 23 C-4.10661505 23.26928623 -6.96609478 23.39058642 -10.8125 21.9375 C-13.85497152 19.24273951 -14.83617886 16.87940378 -16 13 C-16 8.43622214 -15.53048428 6.62569941 -12.5625 3.125 C-8.48357418 -0.25752385 -5.1922784 -0.53919814 0 0 Z M-12 6 C-13.50662097 9.01324195 -13.17770373 11.68286377 -13 15 C-12.34 15.66 -11.68 16.32 -11 17 C-10.896875 16.38125 -10.79375 15.7625 -10.6875 15.125 C-10 13 -10 13 -7 11 C-6.7497843 7.91634129 -6.7497843 7.91634129 -7 5 C-5.02 5 -3.04 5 -1 5 C-1 7.31 -1 9.62 -1 12 C-0.01 12.33 0.98 12.66 2 13 C3.1875 15.0625 3.1875 15.0625 4 17 C5.56935594 13.86128812 5.35201103 11.46144178 5 8 C2.59922048 4.75188653 0.85791399 3.31030932 -2.9375 1.9375 C-7.00945507 2.02060112 -8.88521107 3.46470669 -12 6 Z M-5 6 C-5 7.32 -5 8.64 -5 10 C-4.01 9.67 -3.02 9.34 -2 9 C-2.33 8.01 -2.66 7.02 -3 6 C-3.66 6 -4.32 6 -5 6 Z M-8 14 C-8.33 15.65 -8.66 17.3 -9 19 C-6.15173402 21.36692966 -6.15173402 21.36692966 -2.8125 20.625 C-1.884375 20.41875 -0.95625 20.2125 0 20 C0.33 18.35 0.66 16.7 1 15 C-1.95664519 13.5216774 -4.74229737 13.93967217 -8 14 Z " fill="#919191" transform="translate(21,6)"/>
</svg>
