<?xml version="1.0" encoding="UTF-8"?>
<svg version="1.1" xmlns="http://www.w3.org/2000/svg" width="30" height="30">
<path d="M0 0 C6.96345515 2.96345515 6.96345515 2.96345515 9 5 C9.07205511 6.68608966 9.08386068 8.37500659 9.0625 10.0625 C9.05347656 10.98160156 9.04445313 11.90070312 9.03515625 12.84765625 C9.02355469 13.55792969 9.01195313 14.26820312 9 15 C8.01 15 7.02 15 6 15 C6.020625 13.88625 6.04125 12.7725 6.0625 11.625 C6.26380718 8.16784079 6.26380718 8.16784079 5 6 C4.34 6.66 3.68 7.32 3 8 C0.3984375 8.1953125 0.3984375 8.1953125 -2.625 8.125 C-4.12933594 8.09792969 -4.12933594 8.09792969 -5.6640625 8.0703125 C-6.43492187 8.04710937 -7.20578125 8.02390625 -8 8 C-8 7.34 -8 6.68 -8 6 C-8.99 6 -9.98 6 -11 6 C-11 11.94 -11 17.88 -11 24 C-7.37 24.33 -3.74 24.66 0 25 C0 25.66 0 26.32 0 27 C-1.97909398 27.02686553 -3.95828971 27.04633375 -5.9375 27.0625 C-7.03964844 27.07410156 -8.14179688 27.08570312 -9.27734375 27.09765625 C-12 27 -12 27 -13 26 C-13.08700342 24.36527118 -13.10701063 22.72685945 -13.09765625 21.08984375 C-13.09443359 20.10048828 -13.09121094 19.11113281 -13.08789062 18.09179688 C-13.07951172 17.05087891 -13.07113281 16.00996094 -13.0625 14.9375 C-13.05798828 13.89271484 -13.05347656 12.84792969 -13.04882812 11.77148438 C-13.03699913 9.1809334 -13.02051689 6.59049441 -13 4 C-11.72065972 3.3400348 -10.4389515 2.68465837 -9.15625 2.03125 C-8.44275391 1.66580078 -7.72925781 1.30035156 -6.99414062 0.92382812 C-4.34867564 -0.30173988 -2.87843807 -0.57568761 0 0 Z M-6 4 C-6 4.66 -6 5.32 -6 6 C-3.69 6 -1.38 6 1 6 C1 5.34 1 4.68 1 4 C0.34 4 -0.32 4 -1 4 C-1 3.34 -1 2.68 -1 2 C-3.32357511 1.81509993 -3.32357511 1.81509993 -6 4 Z " fill="#919191" transform="translate(13,0)"/>
<path d="M0 0 C0.72703125 0.2475 1.4540625 0.495 2.203125 0.75 C2.98828125 2.91796875 2.98828125 2.91796875 3.203125 5.75 C1.32421875 8.42578125 1.32421875 8.42578125 -1.359375 11.0625 C-2.22691406 11.94550781 -3.09445313 12.82851563 -3.98828125 13.73828125 C-7.24482343 16.07085319 -8.88112375 16.18125014 -12.796875 15.75 C-12.91432593 10.2298062 -11.34582319 7.77575107 -7.546875 3.75 C-3.55904045 -0.31812652 -3.55904045 -0.31812652 0 0 Z M-0.796875 1.75 C-2.28211142 3.18122782 -3.75987962 4.62020889 -5.234375 6.0625 C-6.05808594 6.86300781 -6.88179687 7.66351563 -7.73046875 8.48828125 C-9.99090977 10.65470808 -9.99090977 10.65470808 -10.796875 13.75 C-7.34485861 12.27278578 -5.14725564 10.31205999 -2.546875 7.625 C-1.84046875 6.90054687 -1.1340625 6.17609375 -0.40625 5.4296875 C0.12484375 4.87539063 0.6559375 4.32109375 1.203125 3.75 C0.543125 3.09 -0.116875 2.43 -0.796875 1.75 Z " fill="#919191" transform="translate(26.796875,14.25)"/>
<path d="M0 0 C4.95 0 9.9 0 15 0 C14.67 0.99 14.34 1.98 14 3 C9.71 3 5.42 3 1 3 C0.67 2.01 0.34 1.02 0 0 Z " fill="#919191" transform="translate(3,13)"/>
<path d="M0 0 C4.95 0 9.9 0 15 0 C15 0.66 15 1.32 15 2 C10.05 2 5.1 2 0 2 C0 1.34 0 0.68 0 0 Z " fill="#919191" transform="translate(3,17)"/>
<path d="M0 0 C4.95 0 9.9 0 15 0 C15 0.66 15 1.32 15 2 C10.05 2 5.1 2 0 2 C0 1.34 0 0.68 0 0 Z " fill="#919191" transform="translate(3,10)"/>
</svg>
