<?xml version="1.0" encoding="UTF-8"?>
<svg version="1.1" xmlns="http://www.w3.org/2000/svg" width="38" height="27">
<path d="M0 0 C3.5625 0.3125 3.5625 0.3125 5.5625 1.375 C7.14739476 4.44573361 6.22088314 7.02058429 5.5625 10.3125 C5.5625 10.9725 5.5625 11.6325 5.5625 12.3125 C6.5525 12.3125 7.5425 12.3125 8.5625 12.3125 C8.2325 11.9825 7.9025 11.6525 7.5625 11.3125 C7.3125 8.375 7.3125 8.375 7.5625 5.3125 C10.5625 3.3125 10.5625 3.3125 13.1875 3.625 C15.5625 4.3125 15.5625 4.3125 16.5625 5.3125 C16.79779412 10.84191176 16.79779412 10.84191176 15.5625 13.3125 C16.2225 13.8075 16.8825 14.3025 17.5625 14.8125 C20.4452217 18.41590212 19.86450997 20.78235042 19.5625 25.3125 C16.9225 25.3125 14.2825 25.3125 11.5625 25.3125 C11.5625 25.9725 11.5625 26.6325 11.5625 27.3125 C8.04168442 27.34177632 4.52090061 27.35939119 1 27.375 C0.00935547 27.38337891 -0.98128906 27.39175781 -2.00195312 27.40039062 C-7.25308026 27.41783623 -12.27608081 27.32495946 -17.4375 26.3125 C-18.4375 25.3125 -18.4375 25.3125 -18.75 21.5 C-18.73213537 18.18313448 -18.60930376 17.5272547 -16.4375 14.8125 C-15.7775 14.3175 -15.1175 13.8225 -14.4375 13.3125 C-14.7675 12.9825 -15.0975 12.6525 -15.4375 12.3125 C-15.5625 8.8125 -15.5625 8.8125 -15.4375 5.3125 C-14.4375 4.3125 -14.4375 4.3125 -10.9375 4.1875 C-7.4375 4.3125 -7.4375 4.3125 -6.4375 5.3125 C-6.39657063 7.64547433 -6.39508277 9.97955225 -6.4375 12.3125 C-5.4475 11.9825 -4.4575 11.6525 -3.4375 11.3125 C-4.0975 10.6525 -4.7575 9.9925 -5.4375 9.3125 C-5.6875 5.8125 -5.6875 5.8125 -5.4375 2.3125 C-3.4375 0.3125 -3.4375 0.3125 0 0 Z M-1.4375 2.3125 C-2.0975 2.9725 -2.7575 3.6325 -3.4375 4.3125 C-3.1189823 6.42070797 -3.1189823 6.42070797 -2.4375 8.3125 C-0.7875 8.6425 0.8625 8.9725 2.5625 9.3125 C3.2225 7.9925 3.8825 6.6725 4.5625 5.3125 C3.9025 4.3225 3.2425 3.3325 2.5625 2.3125 C1.2425 2.3125 -0.0775 2.3125 -1.4375 2.3125 Z M-12.4375 6.3125 C-12.7675 7.6325 -13.0975 8.9525 -13.4375 10.3125 C-12.1175 10.6425 -10.7975 10.9725 -9.4375 11.3125 C-9.1075 9.9925 -8.7775 8.6725 -8.4375 7.3125 C-9.7575 6.9825 -11.0775 6.6525 -12.4375 6.3125 Z M10.5625 6.3125 C10.2325 7.6325 9.9025 8.9525 9.5625 10.3125 C10.5525 10.6425 11.5425 10.9725 12.5625 11.3125 C13.2225 10.9825 13.8825 10.6525 14.5625 10.3125 C14.2325 8.9925 13.9025 7.6725 13.5625 6.3125 C12.5725 6.3125 11.5825 6.3125 10.5625 6.3125 Z M-7.4375 18.3125 C-7.7675 20.6225 -8.0975 22.9325 -8.4375 25.3125 C-2.4975 25.3125 3.4425 25.3125 9.5625 25.3125 C9.27244332 18.6492269 9.27244332 18.6492269 6.375 15.875 C0.8272327 12.79290706 -3.21369746 13.60597717 -7.4375 18.3125 Z M10.5625 15.3125 C9.21223223 17.44189828 9.21223223 17.44189828 10.5 20.4375 C11.0259375 21.860625 11.0259375 21.860625 11.5625 23.3125 C13.5425 23.3125 15.5225 23.3125 17.5625 23.3125 C17.29593428 20.37806598 17.29593428 20.37806598 16.5625 17.3125 C13.74740007 15.0351499 13.74740007 15.0351499 10.5625 15.3125 Z M-15.25 17.5625 C-16.81183428 19.51167293 -16.81183428 19.51167293 -16.4375 23.3125 C-14.4575 23.3125 -12.4775 23.3125 -10.4375 23.3125 C-9.7775 21.0025 -9.1175 18.6925 -8.4375 16.3125 C-12.06770271 16.00550538 -12.06770271 16.00550538 -15.25 17.5625 Z " fill="#919191" transform="translate(18.4375,-0.3125)"/>
</svg>
