<svg width="20" height="20" viewBox="0 0 20 20" fill="none" xmlns="http://www.w3.org/2000/svg">
<g clip-path="url(#clip0_5_13)">
<path d="M18.2422 0H1.75781C0.788555 0 0 0.788555 0 1.75781V18.2422C0 19.2114 0.788555 20 1.75781 20H18.2422C19.2114 20 20 19.2114 20 18.2422V1.75781C20 0.788555 19.2114 0 18.2422 0ZM1.17188 1.75781C1.17188 1.43473 1.43473 1.17188 1.75781 1.17188H18.2422C18.5653 1.17188 18.8281 1.43473 18.8281 1.75781V2.53906H1.17188V1.75781ZM18.8281 18.2422C18.8281 18.5653 18.5653 18.8281 18.2422 18.8281H1.75781C1.43473 18.8281 1.17188 18.5653 1.17188 18.2422V3.71094H18.8281V18.2422Z" fill="black"/>
<path d="M4.06252 14.9609H15.9375C16.2611 14.9609 16.5235 14.6986 16.5235 14.375V5.625C16.5235 5.30141 16.2611 5.03906 15.9375 5.03906H4.06252C3.73893 5.03906 3.47658 5.30141 3.47658 5.625V14.375C3.47658 14.6986 3.73893 14.9609 4.06252 14.9609ZM4.64846 13.7891V12.7592L7.50748 10.1601L9.6142 12.0034C9.84631 12.2065 10.1962 12.1949 10.4144 11.9768L13.4124 8.97867L15.3516 11.1603V13.7891H4.64846ZM15.3516 6.21094V9.39637L13.8754 7.7357C13.6545 7.48715 13.2646 7.4691 13.0232 7.71066L9.97334 10.7605L7.88588 8.93398C7.66178 8.73785 7.32623 8.74109 7.10592 8.94137L4.64846 11.1755V6.21094H15.3516ZM9.06252 16.2891H7.81252C7.48893 16.2891 7.22658 16.5514 7.22658 16.875C7.22658 17.1986 7.48893 17.4609 7.81252 17.4609H9.06252C9.38611 17.4609 9.64846 17.1986 9.64846 16.875C9.64846 16.5514 9.38611 16.2891 9.06252 16.2891ZM12.8125 16.2891H11.5625C11.2389 16.2891 10.9766 16.5514 10.9766 16.875C10.9766 17.1986 11.2389 17.4609 11.5625 17.4609H12.8125C13.1361 17.4609 13.3985 17.1986 13.3985 16.875C13.3985 16.5514 13.1361 16.2891 12.8125 16.2891ZM4.89822 16.1482L4.68752 16.3589L4.47682 16.1482C4.24803 15.9194 3.87701 15.9194 3.64818 16.1482C3.41936 16.377 3.41936 16.748 3.64818 16.9768L4.27318 17.6018C4.50201 17.8306 4.87299 17.8306 5.10182 17.6018L5.72682 16.9768C5.95564 16.748 5.95564 16.377 5.72682 16.1482C5.49803 15.9194 5.12701 15.9194 4.89822 16.1482Z" fill="black"/>
</g>
<defs>
<clipPath id="clip0_5_13">
<rect width="20" height="20" fill="white"/>
</clipPath>
</defs>
</svg>
