<?xml version="1.0" encoding="UTF-8"?><svg id="Layer_2" xmlns="http://www.w3.org/2000/svg" viewBox="0 0 322.31 380"><defs><style>.cls-1{fill:#2a578a;}</style></defs><g id="Layer_1-2"><path class="cls-1" d="m321.7,376.66c.81-1.49.81-3.19.01-4.67-.91-1.67-2.66-2.77-4.68-2.93-1.39-.11-2.82-.08-4.47-.05-.83.01-1.71.03-2.65.03h-2v-224.3c0-.36,0-.72,0-1.09,0-.88.02-1.72-.03-2.54-.25-4.21-2.23-6.09-6.41-6.11-10.37-.03-20.73-.03-31.1-.02h-18.78s0-30.49,0-30.49c0-20.45,0-40.89,0-61.34,0-7.37-1.29-8.66-8.59-8.67h-14.9v-12.52c0-1.43-.02-2.87-.04-4.31-.04-3.28-.09-6.68.1-10.04.21-3.75-.96-6.05-3.87-7.61h-121c-2.87,1.74-4.02,4.2-3.84,8.12.21,4.51.16,9.08.12,13.49-.02,1.91-.04,3.81-.04,5.72v7.15h-6.24c-3.05,0-5.9,0-8.74,0-7.12,0-8.38,1.27-8.38,8.43v143.34s-16.39,0-16.39,0c-7.9,0-15.8,0-23.7,0-7.15,0-8.49,1.34-8.5,8.4v174.34s-6.03,0-6.03,0c-1.63,0-3.27-.01-4.91-.02-3.65-.03-7.43-.06-11.11.08-2.14.08-3.99,1.17-4.95,2.92-.86,1.58-.82,3.38.11,4.96.47.8,1.37,1.53,2.33,2.3.3.25.62.5.92.76h314.34c.32-.29.65-.57.97-.84,1-.84,1.94-1.64,2.41-2.51Zm-245.75-7.83h-37.17v-171.36h37.17v171.36ZM110.7,11.19h106.26v23.03h-106.26V11.19Zm77.54,357.51h-48.59v-45.54h48.59v45.54Zm52.08.08h-40.89v-18.64c0-10.21.01-20.42,0-30.63-.01-5.74-1.78-7.5-7.58-7.5-18.71-.01-37.42-.02-56.14,0-5.61,0-7.32,1.71-7.34,7.3-.03,10.13-.03,20.26-.02,30.4v19.14s-40.96,0-40.96,0V45.78h152.94v323Zm56.4.04h-44.79v-222.68h44.79v222.68Z"/><path class="cls-1" d="m152.55,266.49c.04-3.72.03-7.44.02-11.17,0-1.64,0-3.29,0-4.93s0-3.32,0-4.98c0-3.71.02-7.41-.02-11.12-.05-4.76-1.85-6.63-6.43-6.67-5.41-.06-10.83-.09-16.22-.09s-10.92.03-16.29.09c-4.58.05-6.45,1.99-6.48,6.7-.06,10.96-.06,21.8,0,32.21.03,4.58,2.04,6.64,6.51,6.68,10.86.1,21.79.1,32.51,0,4.55-.04,6.34-1.93,6.39-6.72Zm-11.21-4.49h-23.06v-23.23h23.06v23.23Z"/><path class="cls-1" d="m175.13,266.72c.04,4.44,1.98,6.44,6.28,6.49,11.14.11,22.2.11,32.88,0,4.3-.05,6.22-2.06,6.24-6.53.05-10.96.05-21.92,0-32.59-.02-4.33-1.9-6.37-5.93-6.43-11.29-.16-22.6-.16-33.61,0-4.01.06-5.82,2.06-5.86,6.49-.03,3.73-.03,7.46-.02,11.2,0,1.63,0,3.27,0,4.9s0,3.38,0,5.07c0,3.74-.02,7.61.02,11.4Zm11.19-27.92h23.1v23.27h-23.1v-23.27Z"/><path class="cls-1" d="m220.51,114.81c.07-10.51.08-21.42,0-33.33-.02-4.15-2.04-6.19-6.16-6.24-10.37-.11-21.12-.12-32.88,0-4.29.04-6.3,2.08-6.35,6.43-.04,3.72-.03,7.51-.02,11.17,0,1.64,0,3.28,0,4.92,0,1.8,0,3.6-.01,5.4-.01,3.87-.03,7.88.04,11.81.04,2.59,1.02,5.7,5.4,5.76,11.1.16,22.65.17,34.36.02,3.7-.05,5.59-2.04,5.61-5.93Zm-11.16-5.15h-23.12v-23.23h23.12v23.23Z"/><path class="cls-1" d="m152.55,157.76c-.06-4.45-1.91-6.28-6.38-6.3-5.3-.03-10.69-.04-16.12-.04s-10.92.01-16.4.04c-4.39.02-6.45,2.02-6.48,6.28-.09,10.93-.09,22.02,0,32.95.04,4.28,2.1,6.28,6.48,6.31,11.07.06,22.01.06,32.53,0,4.41-.02,6.32-1.91,6.38-6.31.05-3.81.04-7.69.03-11.44,0-1.68-.01-3.35-.01-5.03s0-3.35.01-5.03c.01-3.75.03-7.63-.03-11.44Zm-11.2,28.04h-23.06v-23.06h23.06v23.06Z"/><path class="cls-1" d="m220.53,190.31c.04-10.86.04-21.7,0-32.23-.02-4.62-1.95-6.6-6.47-6.62-5.47-.03-10.92-.04-16.33-.04s-10.88.01-16.2.04c-4.51.03-6.37,1.96-6.4,6.68-.03,3.63-.02,7.27-.01,10.9v4.83s0,4.87,0,4.87c0,3.75,0,7.49,0,11.24.03,5.17,1.81,7.01,6.83,7.03,10.55.04,21.24.04,31.79,0,4.87-.02,6.77-1.9,6.79-6.7Zm-11.21-4.55h-22.98v-23.18h22.98v23.18Z"/><path class="cls-1" d="m152.55,114.49c.05-3.81.04-7.69.03-11.44,0-1.68-.01-3.35-.01-5.03v-4.68c.02-3.74.03-7.62,0-11.42-.05-4.72-1.9-6.67-6.41-6.71-5.41-.05-10.84-.07-16.25-.07s-10.88.02-16.26.07c-4.38.04-6.44,2.06-6.47,6.35-.09,10.89-.09,21.98,0,32.95.03,4.22,1.98,6.21,6.12,6.25,11.13.12,22.32.12,33.25,0,4.16-.05,5.96-1.92,6.02-6.28Zm-11.19-4.93h-23.07v-23.08h23.07v23.08Z"/></g></svg>