<svg width="16" height="16" viewBox="0 0 16 16" fill="none" xmlns="http://www.w3.org/2000/svg">
<g clip-path="url(#clip0_116_70)">
<path d="M15.0939 0C15.5636 0.142813 15.917 0.534063 15.8748 1.04656C15.8548 1.28656 15.6876 1.56625 15.5792 1.78156C14.6276 3.66875 13.4892 5.48656 12.5686 7.38188C12.9748 8.31563 12.7332 9.4925 12.5482 10.4681C12.2992 11.7813 11.9123 13.1541 11.5089 14.4284C11.4304 14.6759 11.0929 15.805 10.9714 15.9219C10.9357 15.9559 10.8795 15.9622 10.8445 15.9978C10.7411 15.9931 10.6351 16.0044 10.532 15.9978C7.93418 15.8337 5.18324 14.5081 3.80012 12.2456C3.63481 11.975 3.28012 11.36 3.35106 11.0519C3.40793 10.8047 3.81231 10.7638 4.01668 10.6866C5.52356 10.1175 7.44668 8.99281 8.51637 7.78062C8.75606 7.50906 8.92981 7.175 9.20449 6.9375C9.67918 6.52719 10.3101 6.34406 10.9329 6.33781L14.1717 0.374687C14.3301 0.18 14.5176 0.084375 14.7501 0H15.0939ZM12.1561 6.81156C12.1789 6.71844 12.2295 6.62438 12.2761 6.54063C13.2951 4.70438 14.3011 2.85062 15.2492 0.980313C15.2445 0.692813 14.9351 0.509687 14.7029 0.718125L11.5626 6.49844L12.1557 6.81125L12.1561 6.81156ZM9.25387 7.93281L12.0476 9.65563C12.1348 8.89594 12.3857 7.8375 11.7026 7.28094C11.1192 6.80563 10.0895 6.94281 9.56606 7.45531C9.50574 7.51438 9.21668 7.86906 9.25387 7.93281ZM11.7498 11.1859C11.7539 11.0053 11.9767 10.4497 11.8748 10.3269L8.82793 8.40469L8.28168 8.90438C8.47856 9.03188 9.12231 9.35719 9.15543 9.57906C9.19543 9.84687 8.96387 9.99625 8.71762 9.92156C8.48918 9.8525 8.08231 9.43594 7.83481 9.335C7.80387 9.3225 7.77762 9.3025 7.74137 9.31563C6.61481 10.1747 5.36293 10.8691 4.03168 11.3575C4.26668 11.8459 4.58137 12.2856 4.91137 12.7125L4.95106 12.7181C5.63074 12.3897 6.29762 12.0191 6.91637 11.5866C7.08949 11.4656 7.61887 10.9994 7.75168 10.9534C8.10168 10.8322 8.33481 11.2084 8.09137 11.4803C7.89637 11.6984 7.28387 12.1031 7.01668 12.2806C6.50231 12.6225 5.95481 12.9181 5.40668 13.2013C5.98606 13.7709 6.68168 14.2187 7.41918 14.5581C8.09356 13.7847 8.62918 12.9091 9.12543 12.0141C9.31824 11.83 9.66074 11.9569 9.65949 12.2328C9.65918 12.3531 9.54418 12.5409 9.48543 12.6553C9.09699 13.4097 8.57262 14.1431 8.03231 14.795C8.82481 15.1269 9.68824 15.2809 10.5439 15.3438L11.5829 11.8569C11.5717 11.7647 10.6832 11.3125 10.5811 11.1216C10.4789 10.9306 10.5998 10.6913 10.8054 10.6613C11.062 10.6241 11.5095 11.0712 11.7498 11.1862V11.1859Z" fill="black"/>
<path d="M2.3014 9.85118C3.47359 11.0234 1.71515 12.8324 0.514212 11.6849C-0.714225 10.5112 1.10515 8.65524 2.3014 9.85118ZM0.948587 10.2887C0.337025 10.8956 1.24234 11.8027 1.84484 11.2315C2.46577 10.6427 1.54765 9.69461 0.948587 10.2887Z" fill="black"/>
<path d="M2.11749 12.8491C3.30749 12.6941 3.46562 14.5438 2.29624 14.6219C1.15999 14.6978 0.986554 12.9966 2.11749 12.8491ZM2.17968 13.4706C1.86437 13.5275 1.93937 14.0328 2.25905 13.9909C2.58718 13.9478 2.5203 13.4094 2.17968 13.4706Z" fill="black"/>
<path d="M3.30359 7.38439C4.53015 7.17752 4.71109 8.90127 3.63172 9.05596C2.51547 9.21627 2.31984 7.55033 3.30359 7.38439ZM3.42797 8.00783C3.19609 8.07658 3.2689 8.48408 3.5389 8.43439C3.82953 8.38096 3.75265 7.91127 3.42797 8.00783Z" fill="black"/>
<path d="M9.742 10.0055C10.2907 9.88014 10.2823 10.6858 9.80637 10.6176C9.47106 10.5695 9.44325 10.0739 9.742 10.0055Z" fill="black"/>
</g>
<defs>
<clipPath id="clip0_116_70">
<rect width="16" height="16" fill="white"/>
</clipPath>
</defs>
</svg>
