<?xml version="1.0" encoding="UTF-8"?><svg id="Layer_2" xmlns="http://www.w3.org/2000/svg" viewBox="0 0 47.4 47.87"><defs><style>.cls-1{fill:#2a578a;}</style></defs><g id="Layer_1-2"><path class="cls-1" d="m46.64,21.99l-6.95-6.45V4.98h-8v3.14L23.7.68.75,21.99c-.32.3-.34.81-.04,1.13.3.32.8.34,1.13.04l2.66-2.46v26.68h38.4v-26.68l2.66,2.46c.15.14.35.21.55.21.21,0,.42-.09.59-.25.3-.32.28-.83-.04-1.13h0Zm-13.34-15.41h4.8v7.48l-4.8-4.46v-3.02Zm-14.4,39.2v-16.85c0-.41.34-.75.75-.75h8.1c.41,0,.75.34.75.75v16.85h-9.6Zm22.4,0h-11.2v-16.85c0-1.3-1.05-2.35-2.35-2.35h-8.1c-1.3,0-2.35,1.05-2.35,2.35v16.85H6.1v-26.57L23.7,2.87l11.43,10.61,4.57,4.25,1.6,1.49v26.57Z"/><path class="cls-1" d="m43.4,47.87H4v-26.03l-1.82,1.69c-.53.49-1.35.46-1.84-.07-.49-.52-.46-1.35.06-1.84L23.7,0l7.5,6.97v-2.49h9v10.84l6.79,6.3c.25.24.4.56.42.9.01.35-.11.68-.35.93-.49.52-1.35.53-1.84.06l-1.81-1.68v26.03Zm-38.4-1h37.4v-27.32l3.5,3.24c.1.09.25.17.43-.02.05-.05.08-.13.08-.21,0-.08-.04-.15-.1-.21h0s-7.11-6.6-7.11-6.6V5.48h-7v3.78L23.7,1.36,1.09,22.35c-.12.11-.13.3-.01.43.11.12.3.13.42.01l3.5-3.24v27.32Zm36.8-.6h-12.2v-17.35c0-1.02-.83-1.85-1.85-1.85h-8.1c-1.02,0-1.85.83-1.85,1.85v17.35H5.6v-27.29L23.7,2.18l18.1,16.81v27.29Zm-11.2-1h10.2v-25.85L23.7,3.55,6.6,19.43v25.85h10.2v-16.35c0-1.57,1.28-2.85,2.85-2.85h8.1c1.57,0,2.85,1.28,2.85,2.85v16.35Zm-1.6,1h-10.6v-17.35c0-.69.56-1.25,1.25-1.25h8.1c.69,0,1.25.56,1.25,1.25v17.35Zm-9.6-1h8.6v-16.35c0-.14-.11-.25-.25-.25h-8.1c-.14,0-.25.11-.25.25v16.35Zm19.2-30.08l-5.8-5.39v-3.74h5.8v9.13Zm-4.8-5.82l3.8,3.53v-5.83h-3.8v2.31Z"/></g></svg>