<svg width="30" height="30" viewBox="0 0 30 30" fill="none" xmlns="http://www.w3.org/2000/svg">
<path d="M9.65992 29.8065C9.51476 29.8065 9.38121 29.729 9.30766 29.6032L6.29024 24.3774H4.52508C2.98637 24.3774 1.73218 23.1252 1.73218 21.5845V11.3245C1.73218 9.78581 2.98444 8.53162 4.52508 8.53162H14.6341C14.8586 8.53162 15.0406 8.71355 15.0406 8.93807C15.0406 9.16258 14.8586 9.34452 14.6341 9.34452H4.52702C3.4354 9.34452 2.54702 10.2329 2.54702 11.3245V21.5865C2.54702 22.6781 3.4354 23.5665 4.52702 23.5665H6.52637C6.67153 23.5665 6.80508 23.6439 6.87863 23.7697L9.66186 28.589L12.4431 23.7697C12.5167 23.6439 12.6502 23.5665 12.7954 23.5665H21.9444C23.036 23.5665 23.9244 22.6781 23.9244 21.5865V13.0665C23.9244 12.8419 24.1064 12.66 24.3309 12.66C24.5554 12.66 24.7373 12.8419 24.7373 13.0665V21.5865C24.7373 23.1252 23.4851 24.3794 21.9444 24.3794H13.0296L10.0122 29.6052C9.94056 29.729 9.80508 29.8065 9.65992 29.8065Z" fill="#212529" stroke="#212529" stroke-width="0.3"/>
<path d="M7.43403 18.4161C6.3521 18.4161 5.47339 17.5374 5.47339 16.4555C5.47339 15.3735 6.3521 14.4948 7.43403 14.4948C8.51597 14.4948 9.39468 15.3735 9.39468 16.4555C9.39468 17.5374 8.51597 18.4161 7.43403 18.4161ZM7.43403 15.3058C6.80113 15.3058 6.28629 15.8206 6.28629 16.4535C6.28629 17.0865 6.80113 17.6013 7.43403 17.6013C8.06694 17.6013 8.58178 17.0865 8.58178 16.4535C8.58178 15.8206 8.06694 15.3058 7.43403 15.3058ZM13.2347 18.4161C12.1527 18.4161 11.274 17.5374 11.274 16.4555C11.274 15.3735 12.1547 14.4929 13.2347 14.4929C14.3147 14.4929 15.1953 15.3716 15.1953 16.4535C15.1953 17.5355 14.3166 18.4161 13.2347 18.4161ZM13.2347 15.3058C12.6018 15.3058 12.0869 15.8206 12.0869 16.4535C12.0869 17.0865 12.6018 17.6013 13.2347 17.6013C13.8676 17.6013 14.3824 17.0865 14.3824 16.4535C14.3824 15.8206 13.8676 15.3058 13.2347 15.3058ZM19.0353 18.4161C17.9534 18.4161 17.0747 17.5374 17.0747 16.4555C17.0747 15.3735 17.9534 14.4948 19.0353 14.4948C20.1173 14.4948 20.996 15.3735 20.996 16.4555C20.996 17.5374 20.1173 18.4161 19.0353 18.4161ZM19.0353 15.3058C18.4024 15.3058 17.8876 15.8206 17.8876 16.4535C17.8876 17.0865 18.4024 17.6013 19.0353 17.6013C19.6682 17.6013 20.1831 17.0865 20.1831 16.4535C20.1831 15.8206 19.6682 15.3058 19.0353 15.3058ZM26.9398 9.79935H24.9579C24.7334 9.79935 24.5515 9.61742 24.5515 9.3929C24.5515 9.16839 24.7334 8.98645 24.9579 8.98645H26.9398C27.2224 8.98645 27.4508 8.75613 27.4508 8.47548C27.4508 8.1929 27.2205 7.96451 26.9398 7.96451C26.7153 7.96451 26.5334 7.78258 26.5334 7.55806C26.5334 7.33355 26.7153 7.15161 26.9398 7.15161C27.6695 7.15161 28.2637 7.7458 28.2637 8.47548C28.2656 9.20516 27.6715 9.79935 26.9398 9.79935Z" fill="#212529" stroke="#212529" stroke-width="0.3"/>
<path d="M26.7193 11.6361H24.718C24.4935 11.6361 24.3115 11.4542 24.3115 11.2297C24.3115 11.0052 24.4935 10.8232 24.718 10.8232H26.7193C27.0018 10.8232 27.2302 10.5929 27.2302 10.3123C27.2302 10.0316 26.9999 9.80131 26.7193 9.80131C26.4947 9.80131 26.3128 9.61937 26.3128 9.39485C26.3128 9.17034 26.4947 8.9884 26.7193 8.9884C27.4489 8.9884 28.0431 9.5826 28.0431 10.3123C28.0431 11.042 27.4489 11.6361 26.7193 11.6361Z" fill="#212529" stroke="#212529" stroke-width="0.3"/>
<path d="M22.2869 13.4748C21.8805 13.4748 21.4508 13.4458 20.9824 13.3877C20.4773 13.3258 19.9856 13.2561 19.5153 13.08C19.3295 13.0103 19.1398 12.9155 18.9366 12.7877C18.9114 12.7722 18.8863 12.7568 18.8611 12.7393C18.7314 12.658 18.6211 12.5864 18.505 12.5516C18.4682 12.54 18.3985 12.5419 18.325 12.5438C18.2979 12.5438 18.2708 12.5458 18.2456 12.5458L17.8276 12.5497H17.8237C17.6011 12.5497 17.4192 12.3697 17.4173 12.1471C17.4153 11.9226 17.5953 11.7387 17.8198 11.7368L18.2379 11.7329C18.2592 11.7329 18.2824 11.7329 18.3037 11.7309C18.4276 11.7271 18.5824 11.7232 18.7469 11.7755C18.9656 11.8432 19.1398 11.9555 19.2947 12.0542C19.3179 12.0697 19.3411 12.0832 19.3663 12.0987C19.5269 12.1993 19.6643 12.269 19.7998 12.3193C20.1869 12.4645 20.6089 12.5245 21.0811 12.5826C21.5979 12.6464 22.0566 12.6716 22.4882 12.66H26.274C26.5566 12.66 26.785 12.4297 26.785 12.149C26.785 11.8664 26.5547 11.638 26.274 11.638C26.0495 11.638 25.8676 11.4561 25.8676 11.2316C25.8676 11.0071 26.0495 10.8251 26.274 10.8251C27.0037 10.8251 27.5979 11.4193 27.5979 12.149C27.5979 12.8787 27.0037 13.4729 26.274 13.4729H22.5018C22.4302 13.4748 22.3605 13.4748 22.2869 13.4748ZM26.5856 7.96256H25.0779C24.8534 7.96256 24.6714 7.78062 24.6714 7.55611C24.6714 7.33159 24.8534 7.14966 25.0779 7.14966H26.5856C26.8682 7.14966 27.0966 6.91933 27.0966 6.63869C27.0966 6.35611 26.8663 6.12772 26.5856 6.12772H22.705C22.4805 6.12772 22.2985 5.94579 22.2985 5.72127C22.2985 5.36514 22.3721 5.02643 22.5192 4.71288C22.5831 4.57546 22.6508 4.44191 22.7166 4.31224C22.8463 4.05675 22.9702 3.81288 23.0573 3.5574C23.2702 2.94385 23.4405 2.06708 23.0611 1.35675C23.0553 1.34901 23.0495 1.34127 23.0437 1.33159C22.9334 1.18256 22.7882 1.07224 22.6508 1.02966C22.4592 0.971592 22.2598 1.03353 22.165 1.17869C22.1166 1.25417 22.1108 1.36062 22.1185 1.54256C22.1302 1.83482 22.1185 2.09998 22.0818 2.34966C22.0043 2.8703 21.8456 3.33095 21.6095 3.71998C21.5998 3.75869 21.5843 3.79546 21.5631 3.8303C21.5476 3.85546 21.4431 4.02191 21.265 4.26191V4.26385C21.2631 4.26579 21.2631 4.26772 21.2611 4.26772C20.7134 5.0032 19.4669 6.41998 17.8798 6.62708C17.6573 6.65611 17.454 6.49933 17.425 6.27675C17.396 6.05417 17.5527 5.85095 17.7753 5.82191C19.0353 5.65933 20.094 4.46514 20.5818 3.82062C20.5837 3.81675 20.5876 3.81095 20.5895 3.80708C20.6011 3.78966 20.6185 3.76062 20.6437 3.72191C20.694 3.6445 20.7714 3.52256 20.8779 3.36191C21.0792 3.05417 21.2147 2.67482 21.2785 2.23353C21.3076 2.03417 21.3173 1.81933 21.3076 1.5774C21.2979 1.31998 21.3018 1.01998 21.4856 0.737398C21.7779 0.288366 22.3547 0.0909468 22.8908 0.253527C23.1966 0.346431 23.4831 0.557398 23.6979 0.847721C23.7192 0.876753 23.7366 0.901915 23.754 0.927076C23.7598 0.934818 23.7637 0.944495 23.7695 0.952237C24.1914 1.7245 24.2127 2.7174 23.8295 3.8245C23.7231 4.13224 23.5818 4.41095 23.4443 4.67998C23.3785 4.80966 23.3166 4.93159 23.2585 5.0574C23.2198 5.14062 23.1889 5.22772 23.1656 5.31482H26.5895C27.3192 5.31482 27.9134 5.90901 27.9134 6.63869C27.9134 7.36837 27.3173 7.96256 26.5856 7.96256Z" fill="#212529" stroke="#212529" stroke-width="0.3"/>
<path d="M17.8237 13.3955H14.6359C14.4114 13.3955 14.2295 13.2135 14.2295 12.989V5.42708C14.2295 5.20257 14.4114 5.02063 14.6359 5.02063H17.8237C18.0482 5.02063 18.2301 5.20257 18.2301 5.42708V12.989C18.2301 13.2135 18.0482 13.3955 17.8237 13.3955ZM15.0424 12.5826H17.4172V5.83353H15.0424V12.5826Z" fill="#212529" stroke="#212529" stroke-width="0.3"/>
</svg>
