<svg width="35" height="35" viewBox="0 0 35 35" fill="none" xmlns="http://www.w3.org/2000/svg">
<path d="M11.27 34.7741C11.1007 34.7741 10.9449 34.6838 10.8591 34.537L7.33874 28.4403H5.27938C3.48422 28.4403 2.021 26.9793 2.021 25.1819V13.2119C2.021 11.4167 3.48196 9.95349 5.27938 9.95349H17.0733C17.3352 9.95349 17.5474 10.1657 17.5474 10.4277C17.5474 10.6896 17.3352 10.9019 17.0733 10.9019H5.28164C4.00809 10.9019 2.97164 11.9383 2.97164 13.2119V25.1841C2.97164 26.4577 4.00809 27.4941 5.28164 27.4941H7.61422C7.78358 27.4941 7.93938 27.5845 8.02519 27.7312L11.2723 33.3538L14.5171 27.7312C14.6029 27.5845 14.7587 27.4941 14.9281 27.4941H25.602C26.8755 27.4941 27.912 26.4577 27.912 25.1841V15.2441C27.912 14.9822 28.1242 14.7699 28.3862 14.7699C28.6481 14.7699 28.8604 14.9822 28.8604 15.2441V25.1841C28.8604 26.9793 27.3994 28.4425 25.602 28.4425H15.2013L11.681 34.5393C11.5974 34.6838 11.4394 34.7741 11.27 34.7741Z" fill="#2A578A" stroke="#2A578A" stroke-width="0.3"/>
<path d="M8.67316 21.4854C7.4109 21.4854 6.38574 20.4603 6.38574 19.198C6.38574 17.9358 7.4109 16.9106 8.67316 16.9106C9.93542 16.9106 10.9606 17.9358 10.9606 19.198C10.9606 20.4603 9.93542 21.4854 8.67316 21.4854ZM8.67316 17.8567C7.93477 17.8567 7.33413 18.4574 7.33413 19.1958C7.33413 19.9342 7.93477 20.5348 8.67316 20.5348C9.41155 20.5348 10.0122 19.9342 10.0122 19.1958C10.0122 18.4574 9.41155 17.8567 8.67316 17.8567ZM15.4406 21.4854C14.1783 21.4854 13.1532 20.4603 13.1532 19.198C13.1532 17.9358 14.1806 16.9083 15.4406 16.9083C16.7006 16.9083 17.728 17.9335 17.728 19.1958C17.728 20.458 16.7028 21.4854 15.4406 21.4854ZM15.4406 17.8567C14.7022 17.8567 14.1015 18.4574 14.1015 19.1958C14.1015 19.9342 14.7022 20.5348 15.4406 20.5348C16.179 20.5348 16.7796 19.9342 16.7796 19.1958C16.7796 18.4574 16.179 17.8567 15.4406 17.8567ZM22.208 21.4854C20.9457 21.4854 19.9206 20.4603 19.9206 19.198C19.9206 17.9358 20.9457 16.9106 22.208 16.9106C23.4703 16.9106 24.4954 17.9358 24.4954 19.198C24.4954 20.4603 23.4703 21.4854 22.208 21.4854ZM22.208 17.8567C21.4696 17.8567 20.869 18.4574 20.869 19.1958C20.869 19.9342 21.4696 20.5348 22.208 20.5348C22.9464 20.5348 23.547 19.9342 23.547 19.1958C23.547 18.4574 22.9464 17.8567 22.208 17.8567ZM31.4299 11.4325H29.1177C28.8557 11.4325 28.6435 11.2203 28.6435 10.9583C28.6435 10.6964 28.8557 10.4842 29.1177 10.4842H31.4299C31.7596 10.4842 32.0261 10.2154 32.0261 9.88802C32.0261 9.55834 31.7574 9.29189 31.4299 9.29189C31.168 9.29189 30.9557 9.07963 30.9557 8.8177C30.9557 8.55576 31.168 8.34351 31.4299 8.34351C32.2812 8.34351 32.9745 9.03673 32.9745 9.88802C32.9767 10.7393 32.2835 11.4325 31.4299 11.4325Z" fill="#2A578A" stroke="#2A578A" stroke-width="0.3"/>
<path d="M31.1726 13.5755H28.8377C28.5758 13.5755 28.3635 13.3632 28.3635 13.1013C28.3635 12.8394 28.5758 12.6271 28.8377 12.6271H31.1726C31.5022 12.6271 31.7687 12.3584 31.7687 12.031C31.7687 11.7035 31.5 11.4348 31.1726 11.4348C30.9106 11.4348 30.6984 11.2226 30.6984 10.9606C30.6984 10.6987 30.9106 10.4865 31.1726 10.4865C32.0238 10.4865 32.7171 11.1797 32.7171 12.031C32.7171 12.8823 32.0238 13.5755 31.1726 13.5755Z" fill="#2A578A" stroke="#2A578A" stroke-width="0.3"/>
<path d="M26.0016 15.7206C25.5274 15.7206 25.0261 15.6867 24.4797 15.619C23.8903 15.5467 23.3168 15.4654 22.7681 15.26C22.5513 15.1787 22.33 15.068 22.0929 14.919C22.0636 14.9009 22.0342 14.8829 22.0048 14.8625C21.8536 14.7677 21.7248 14.6841 21.5894 14.6435C21.5465 14.63 21.4652 14.6322 21.3794 14.6345C21.3477 14.6345 21.3161 14.6367 21.2868 14.6367L20.799 14.6412H20.7945C20.5348 14.6412 20.3226 14.4312 20.3203 14.1716C20.3181 13.9096 20.5281 13.6951 20.79 13.6929L21.2777 13.6883C21.3026 13.6883 21.3297 13.6883 21.3545 13.6861C21.499 13.6816 21.6797 13.6771 21.8716 13.738C22.1268 13.8171 22.33 13.948 22.5107 14.0632C22.5378 14.0812 22.5648 14.0971 22.5942 14.1151C22.7816 14.2325 22.9419 14.3138 23.1 14.3725C23.5516 14.5419 24.0439 14.6119 24.5948 14.6796C25.1977 14.7541 25.7329 14.7835 26.2365 14.77H30.6532C30.9829 14.77 31.2494 14.5012 31.2494 14.1738C31.2494 13.8441 30.9807 13.5777 30.6532 13.5777C30.3913 13.5777 30.179 13.3654 30.179 13.1035C30.179 12.8416 30.3913 12.6293 30.6532 12.6293C31.5045 12.6293 32.1978 13.3225 32.1978 14.1738C32.1978 15.0251 31.5045 15.7183 30.6532 15.7183H26.2523C26.1687 15.7206 26.0874 15.7206 26.0016 15.7206ZM31.0168 9.28963H29.2577C28.9958 9.28963 28.7836 9.07737 28.7836 8.81544C28.7836 8.5535 28.9958 8.34125 29.2577 8.34125H31.0168C31.3465 8.34125 31.6129 8.07254 31.6129 7.74512C31.6129 7.41544 31.3442 7.14899 31.0168 7.14899H26.4894C26.2274 7.14899 26.0152 6.93673 26.0152 6.67479C26.0152 6.25931 26.101 5.86415 26.2726 5.49834C26.3471 5.33802 26.4261 5.18221 26.5029 5.03092C26.6542 4.73286 26.7987 4.44834 26.9003 4.15028C27.1487 3.43447 27.3474 2.41157 26.9048 1.58286C26.8981 1.57383 26.8913 1.56479 26.8845 1.5535C26.7558 1.37963 26.5865 1.25092 26.4261 1.20125C26.2026 1.1335 25.97 1.20576 25.8594 1.37512C25.8029 1.46318 25.7961 1.58737 25.8052 1.79963C25.8187 2.1406 25.8052 2.44996 25.7623 2.74125C25.6719 3.34866 25.4868 3.88608 25.2113 4.33996C25.2 4.38512 25.1819 4.42802 25.1571 4.46866C25.139 4.49802 25.0171 4.69221 24.8094 4.97221V4.97447C24.8071 4.97673 24.8071 4.97899 24.8048 4.97899C24.1658 5.83705 22.7116 7.48996 20.86 7.73157C20.6003 7.76544 20.3632 7.58254 20.3294 7.32286C20.2955 7.06318 20.4784 6.82608 20.7381 6.79221C22.2081 6.60254 23.4432 5.20931 24.0123 4.45737C24.0145 4.45286 24.019 4.44608 24.0213 4.44157C24.0348 4.42125 24.0552 4.38737 24.0845 4.34221C24.1432 4.25189 24.2336 4.10963 24.3577 3.92221C24.5926 3.56318 24.7507 3.1206 24.8252 2.60576C24.859 2.37318 24.8703 2.12254 24.859 1.84028C24.8477 1.53996 24.8523 1.18996 25.0668 0.860278C25.4077 0.336407 26.0807 0.106084 26.7061 0.295762C27.0629 0.404149 27.3971 0.650278 27.6478 0.988987C27.6726 1.02286 27.6929 1.05221 27.7132 1.08157C27.72 1.0906 27.7245 1.10189 27.7313 1.11092C28.2236 2.01189 28.2484 3.17028 27.8013 4.46189C27.6771 4.82092 27.5123 5.14608 27.3519 5.45996C27.2752 5.61125 27.2029 5.7535 27.1352 5.90028C27.09 5.99737 27.0539 6.09899 27.0268 6.2006H31.0213C31.8726 6.2006 32.5658 6.89383 32.5658 7.74512C32.5658 8.59641 31.8703 9.28963 31.0168 9.28963Z" fill="#2A578A" stroke="#2A578A" stroke-width="0.3"/>
<path d="M20.7945 15.6281H17.0755C16.8136 15.6281 16.6013 15.4158 16.6013 15.1539V6.33162C16.6013 6.06968 16.8136 5.85742 17.0755 5.85742H20.7945C21.0565 5.85742 21.2687 6.06968 21.2687 6.33162V15.1539C21.2687 15.4158 21.0565 15.6281 20.7945 15.6281ZM17.5497 14.6797H20.3204V6.80581H17.5497V14.6797Z" fill="#2A578A" stroke="#2A578A" stroke-width="0.3"/>
</svg>
