<?xml version="1.0" encoding="UTF-8"?><svg id="Layer_2" xmlns="http://www.w3.org/2000/svg" viewBox="0 0 326.42 360.13"><defs><style>.cls-1{fill:#a6a6ae;}</style></defs><g id="Layer_1-2"><path class="cls-1" d="m280.2,239.13c12.8,12.83,24.98,25.03,37.14,37.25,7.97,8,11.02,17.54,7.83,28.46-5.72,19.6-30.7,29.82-47.93,13.16-9.97-9.64-19.67-19.58-29.49-29.37-.96-.95-1.96-1.86-2.65-2.52-4.37,3.78-8.29,7.66-12.7,10.87-6.87,5-14.64,6.71-23.1,4.88-5.02-1.09-9.94-.15-13.91,2.9-4.69,3.59-8.82,7.9-13.29,11.98,1.61,1.92,2.7,2.96,3.46,4.19,1.63,2.64,1.47,5.32-.72,7.56-9.71,9.91-19.43,19.81-29.28,29.58-3.2,3.17-6.44,2.63-9.99-1.21-12.06-13.02-24.1-26.06-36.15-39.09-17.81-19.28-35.62-38.56-53.43-57.83-4.58-4.96-4.56-7.2.02-12.08,8.04-8.56,16.06-17.15,24.11-25.71,5.23-5.57,7.56-5.55,12.87.04.69.72,1.31,1.5,2.31,2.64,4.1-4.58,7.64-9.28,11.93-13.15,5.51-4.98,7-10.15,5.47-17.66-2.3-11.25-1.05-22.66,3.15-33.53.72-1.87.43-2.96-.83-4.59-5.03-6.52-10.09-8-18.83-5.55C52.7,162.54,7.98,132.71.99,87.88c-2.17-13.9-.81-27.38,4.45-40.44,2.64-6.56,6.97-7.47,11.95-2.51,11.87,11.82,23.7,23.68,35.55,35.51.96.96,1.97,1.86,2.64,2.49,7.38-7.37,14.59-14.57,22.26-22.22-2.04-1.89-4.37-3.94-6.57-6.12-11.16-11.11-22.3-22.25-33.43-33.39-4.91-4.92-4.32-8.77,1.79-12.09,46.18-25.04,104.45,4.12,112.35,56.2,1.99,13.11.95,25.91-3.77,38.32-.76,2.01-.68,3.33.98,4.89,4.45,4.2,8.64,8.69,13.09,12.89,1.06.99,2.72,1.45,4.19,1.87,5.55,1.61,8.92-.76,12.13-5.43,4.99-7.26,11.67-12.9,19.86-16.66,13.04-6,30.55,1.34,31.02,18.19,9.3-4.02,18-3.32,25.84,3.27,7.85,6.6,10,14.91,7.1,25.25,7.78-1.22,14.66.07,20.38,5.29,5.59,5.11,8.27,11.45,7.79,18.96,2.34.8,4.52,1.34,6.53,2.26,10.69,4.94,15.87,16.38,12.51,27.83-3.33,11.37-11.09,19.64-19.54,27.4-3.29,3.03-6.46,6.2-9.89,9.5Zm-176.51-5.59c23.56,25.07,46.9,49.92,69.71,74.19,3.84-3.46,7.42-6.93,11.26-10.08,7.35-6.04,15.71-9.27,25.34-7.83,10.79,1.61,20.32-3.04,25.29-12.03-22.18-22.28-44.18-44.37-66-66.29-.97,4.58-3.46,6.93-7.13,6.38-3.56-.53-5.35-3.34-4.94-8.3.33-3.98.78-7.96,1.51-11.88,1.42-7.64,3.38-15.14,8.18-21.49,4.76-6.29,11.24-8.25,18.2-5.31,2.73,1.15,5.24,2.88,7.72,4.53,7.71,5.15,15.53,10.12,24.64,12.34,3.42.83,7.18,1.11,10.67.68,4.18-.51,6.36-3.37,5.4-7.46-.81-3.47-2.59-7.05-4.92-9.74-3.74-4.32-8.16-8.09-12.5-11.84-9.97-8.6-20.57-16.29-33.06-20.9-8.11-2.99-16.49-4.68-24.95-2.19-18.33,5.4-29.3,17.85-33.16,36.43-1.98,9.55-1.42,19.17,1.26,28.56,1.09,3.8.41,6.64-2.26,9.54-6.77,7.34-13.31,14.89-20.25,22.69ZM50.97,17.18c1.22,1.28,2.13,2.28,3.09,3.23,11.84,11.85,23.7,23.67,35.53,35.53,4.02,4.03,4.03,6.83.03,10.85-9.35,9.39-18.72,18.76-28.11,28.1-4.1,4.08-6.98,4.03-11.14-.12-10.98-10.94-21.93-21.91-32.9-32.86-.93-.93-1.91-1.81-3.21-3.05-3.16,11.83-3.05,23.05.07,34.18,10.83,38.62,52.12,58.25,89.09,42.44,4.85-2.07,6.24-1.86,9.94,1.92,3.13,3.19,6.16,6.49,9.38,9.9,7.44-9.7,16.09-16.81,27.38-21.35-4.54-4.43-8.58-8.33-12.57-12.28-4.13-4.1-4.3-5.18-2.01-10.57,7.72-18.17,7.32-36.26-1.06-54.06C119.93,18.16,81.6,3.41,50.97,17.18Zm161.15,182.81c-8.43-4.71-16.87-8.98-24.85-13.99-9.44-5.94-11.13-5.49-14.57,5.19-.99,3.07-.63,5.04,1.8,7.45,32.71,32.47,65.28,65.07,97.88,97.64,4.51,4.5,8.91,9.11,13.56,13.46,7.01,6.55,16.46,6.06,23.39-1,6.68-6.81,6.89-16.3.22-23.11-8.73-8.93-17.66-17.66-26.47-26.51-3.78-3.8-7.49-7.67-11.26-11.53-8.47,6.16-16.87,11.84-27.48,7.3-10.19-4.37-15.31-12.38-14.53-23.57-16.2-4.06-21.79-14.5-17.69-31.33Zm-145.33,53.93c28.27,30.58,56.3,60.9,83.83,90.69,7.22-7.03,14.24-13.86,21.4-20.83-28.37-30.19-56.8-60.45-85.46-90.94-6.67,7.11-13.06,13.92-19.77,21.08Zm164.52-34.76c4.56-.02,8.58-1.79,13.4-6.42,8.37-8.04,16.64-16.2,24.59-24.64,3.03-3.21,5.48-7.15,7.5-11.1,3.02-5.89,2.32-10.46-1.32-14.18-3.76-3.84-8.69-4.87-14.4-1.45-5.48,3.28-10.26,7.75-15.22,11.84-.65.54-.9,2.02-.76,2.97,2.18,14.31-3.44,22.2-17.58,24.62-.93.16-2.06.34-2.68.94-2.3,2.25-3.17,8.28-1.62,11.33,1.87,3.7,4.84,5.95,8.09,6.08Zm10.53,14.73c-.11,6.93,6.78,12.16,13.37,9.73,3.08-1.14,6.16-2.96,8.53-5.21,9.2-8.77,18.48-17.51,26.97-26.95,3.59-3.99,6-9.45,7.69-14.65,1.76-5.44-3.54-11.91-9.15-12.21-1.2-.06-2.97.68-3.61,1.64-9.9,14.78-23.33,26.18-36.24,38.07-1,.92-2.17,1.74-3.4,2.3-3.19,1.46-4.12,4.09-4.17,7.28Zm-22.67-87.89c6.36,5.78,12.52,11.38,18.96,17.22,5.78-5.32,10.23-11.48,12.78-18.95,1.65-4.83.88-9.05-3.27-12.43-4.19-3.41-8.22-4-13.16-1.34-6.64,3.59-11.39,9.09-15.31,15.49Zm-32.21-19.44c7.78,4.13,15.02,7.98,22.43,11.92,3.85-5.16,6.95-10.84,7.76-17.44.81-6.62-4.06-10.94-10.65-9.72-1.34.25-2.68.67-3.91,1.24-6.64,3.12-11.23,8.48-15.62,14Z"/></g></svg>