<?xml version="1.0" encoding="UTF-8"?><svg id="Layer_2" xmlns="http://www.w3.org/2000/svg" viewBox="0 0 344.24 344.01"><defs><style>.cls-1{fill:#2a578a;}</style></defs><g id="Layer_1-2"><path class="cls-1" d="m344,172.19c0,31,.32,62-.16,92.99-.18,11.8-1.23,23.77-3.6,35.31-4.63,22.54-19.33,35.65-41.69,40.34-15.9,3.33-32.05,3.24-48.16,3.15-25.37-.15-50.76-.09-76.1-1.11-9.32-.37-18.91-2.48-27.71-5.65-18.21-6.57-27.6-21.04-31.28-39.48-3.05-15.28-3.15-30.81-3.02-46.3.05-6.52,5.63-11.33,12.14-11.23,6.48.09,11.46,5.04,11.75,11.69.5,11.23.88,22.47,1.54,33.69.2,3.46.93,6.94,1.81,10.31,3.63,13.96,12.18,20.89,29.14,22.37,13.05,1.14,26.19,1.65,39.3,1.66,24.37.03,48.74-.38,73.1-.9,5.07-.11,10.18-1.18,15.15-2.33,11.17-2.57,18.4-9.63,20.57-20.83,1.66-8.54,2.96-17.32,3-25.99.24-65.25.2-130.49.03-195.74-.02-7.45-.96-14.98-2.2-22.34-2.54-15.06-10.07-23.05-25.25-25.01-13.46-1.74-27.13-2.26-40.71-2.48-21.5-.34-43-.16-64.5.17-7.47.11-14.99.87-22.36,2.09-16.43,2.72-24.25,10.44-26.25,27.07-1.51,12.62-1.69,25.4-2.32,38.12-.35,7.08-5.24,12.23-11.99,12.26-6.15.02-11.82-4.57-11.89-10.68-.18-17.12-.3-34.3,3.97-51.05,6.02-23.61,22.1-36.38,45.55-39.47,14.56-1.92,29.38-2.27,44.1-2.54,19.87-.37,39.76-.31,59.63.18,10.7.26,21.52.99,32.02,2.94,25.63,4.78,40.81,20.79,43.98,46.73,1.75,14.34,2.25,28.88,2.45,43.35.37,26.24.11,52.5.11,78.75-.05,0-.09,0-.14,0Z"/><path class="cls-1" d="m44.67,160.09c2.56,0,3.92,0,5.27,0,55.89,0,111.77,0,167.66,0,1.5,0,3.02-.08,4.49.15,6.03.95,10.43,6.49,10.08,12.55-.34,5.91-5.12,10.78-11.11,11.25-1.37.11-2.75.05-4.12.05-55.51,0-111.02,0-166.54,0h-5.52c1.6,1.48,2.57,2.45,3.61,3.34,8.91,7.66,17.87,15.26,26.74,22.97,5.75,4.99,6.49,12.4,1.92,17.58-4.64,5.27-11.82,5.49-17.71.45-17.86-15.28-35.7-30.56-53.52-45.89-7.88-6.78-7.9-14.11-.05-20.86,17.82-15.32,35.67-30.61,53.52-45.89,5.9-5.05,13.05-4.88,17.7.35,4.69,5.26,3.88,12.67-2.08,17.84-8.4,7.29-16.88,14.49-25.33,21.73-1.4,1.2-2.78,2.42-5.02,4.38Z"/></g></svg>