<?xml version="1.0" encoding="UTF-8"?>
<svg id="Layer_2" data-name="Layer 2" xmlns="http://www.w3.org/2000/svg" viewBox="0 0 862.92 862.92">
  <defs>
    <style>
      .cls-1 {
        fill: #dcdce0;
      }

      .cls-2 {
        fill: #aaaab2;
      }
    </style>
  </defs>
  <g id="Objects">
    <g>
      <path class="cls-1" d="M146.95,755.83c-11.27-9.9-22.03-20.38-32.22-31.38-4.27-4.61-8.44-9.32-12.51-14.12C38.45,635.12,0,537.78,0,431.46,0,193.17,193.17,0,431.46,0s431.46,193.17,431.46,431.46c0,106.32-38.45,203.66-102.22,278.86-4.07,4.8-8.24,9.51-12.51,14.12-10.19,11.01-20.95,21.48-32.22,31.38H146.95Z"/>
      <path class="cls-2" d="M715.97,755.83c-75.95,66.67-175.52,107.1-284.51,107.1s-208.56-40.42-284.51-107.1c63.89-101.41,167.52-167.35,284.51-167.35s220.62,65.94,284.51,167.35Z"/>
      <circle class="cls-2" cx="431.46" cy="342.1" r="174.26"/>
    </g>
  </g>
</svg>