<?xml version="1.0" encoding="UTF-8"?><svg id="Layer_2" xmlns="http://www.w3.org/2000/svg" viewBox="0 0 383.36 383.2"><defs><style>.cls-1{fill:#212529;}</style></defs><g id="Layer_1-2"><path class="cls-1" d="m140.77,0c2.39.64,4.83,1.14,7.17,1.94,13.34,4.55,22.11,13.64,26.16,27.09.74,2.47,1.8,3.06,4.13,3.02,6.74-.12,13.47-.09,20.21-.03,6.31.06,9.04,2.85,9.14,9.19.03,2.09,0,4.18,0,6.72,8.44,0,16.51-.17,24.58.04,13.47.35,24.23,6.09,32.12,17.02,5.05,7,7.28,14.98,7.3,23.55.05,31.19.03,62.37,0,93.56,0,1.35-.16,2.76-.55,4.05-1,3.36-4.18,5.62-7.65,5.44-3.58-.18-6.21-1.96-7.27-5.43-.53-1.75-.58-3.69-.58-5.54-.03-30.06-.39-60.13.13-90.19.26-15.38-10.61-27.4-26.87-26.67-6.83.31-13.69.05-21.2.05,0,2.44.02,4.62,0,6.81-.14,15.27-10.12,25.18-25.46,25.19-30.94.02-61.88.03-92.83,0-15.19-.01-25.31-10.11-25.46-25.31-.02-2.09,0-4.17,0-5.98-10.12,0-19.92-.93-29.45.25-10.38,1.28-17.61,11.06-18.4,22.13-.07.99-.07,1.99-.07,2.99,0,67.86-.01,135.72,0,203.59,0,12.57,6.45,21.87,17.48,24.89,2.96.81,6.15,1.05,9.24,1.06,35.81.07,71.62.04,107.43.05,5.41,0,8.58,2.12,9.41,6.12.98,4.76-2.1,9.09-6.94,9.7-.74.09-1.49.07-2.24.07-36.68,0-73.36.07-110.05-.03-18.96-.05-34.54-12.29-38.99-30.5-.85-3.47-1.19-7.15-1.19-10.73C0,225.75-.02,157.39.03,89.03c.02-23.77,17.33-41.01,41.1-41.11,7.45-.03,14.91,0,22.72,0,0-2.48-.04-4.57,0-6.66.13-6.25,3-9.18,9.2-9.23,7.73-.06,15.46-.01,23.21-.01.36-.85.73-1.5.94-2.2,4.78-16.07,15.42-25.74,31.79-29.18.46-.1.87-.41,1.3-.62,3.49,0,6.99,0,10.48,0Zm-60.3,47.91c-.26.61-.44.82-.44,1.04-.04,6.6-.09,13.21-.09,19.81,0,8.73,2.39,11.15,11.05,11.15,29.93,0,59.85,0,89.78-.02,1.61,0,3.25-.07,4.82-.41,3.26-.69,5.67-2.93,5.8-6.07.34-8.41.12-16.84.12-25.51-7.89,0-15.48.05-23.07-.02-5.16-.05-8.08-2.75-8.73-7.85-.23-1.85-.24-3.75-.67-5.55-2.74-11.37-13.25-19.29-24.43-18.51-12.47.87-21.42,9.77-22.78,22.64-.75,7.15-3.11,9.28-10.32,9.29-7.07,0-14.15,0-21.05,0Z"/><path class="cls-1" d="m383.36,232.81c-2.05,7.66-7.32,13.02-12.74,18.42-38.88,38.75-77.64,77.62-116.58,116.32-2.23,2.22-5.49,4-8.56,4.66-17.65,3.81-35.39,7.25-53.11,10.77-6.64,1.32-11.38-3.39-10.08-9.96,3.62-18.2,7.21-36.42,11-54.58.45-2.17,1.71-4.5,3.28-6.07,40.86-41,81.79-81.94,122.77-122.83,10.17-10.15,24.49-10.15,34.76-.14,7.41,7.23,14.99,14.34,21.84,22.07,3.25,3.67,4.99,8.7,7.41,13.11v8.23Zm-183.1,131.99c1.8-.21,2.9-.26,3.97-.48,11.84-2.37,23.69-4.71,35.51-7.23,1.7-.36,3.54-1.28,4.76-2.5,39.83-39.7,79.59-79.47,119.35-119.25,4.71-4.72,4.75-8.88.12-13.56-6.39-6.48-12.85-12.89-19.29-19.33-6.1-6.1-9.6-6.09-15.7,0-37.13,37.11-74.15,74.33-111.48,111.24-6.09,6.02-10.27,12.17-11.38,20.88-1.26,9.96-3.77,19.76-5.85,30.22Z"/><path class="cls-1" d="m135.73,143.73c-25.82,0-51.64,0-77.47-.01-1.49,0-3.03.01-4.44-.36-3.83-1-6.27-4.68-5.83-8.49.43-3.72,3.35-6.58,7.18-6.94,1.36-.13,2.74-.09,4.11-.09,51.02,0,102.04,0,153.06,0,1.25,0,2.5-.03,3.74.07,4.33.35,7.51,3.66,7.53,7.81.02,4.13-3.13,7.55-7.43,7.97-1.24.12-2.49.06-3.74.06-25.57,0-51.14,0-76.72,0Z"/><path class="cls-1" d="m135.53,175.73c25.57,0,51.14,0,76.72,0,1.37,0,2.75-.04,4.11.09,4.13.39,7.17,3.65,7.26,7.68.08,3.81-2.72,7.26-6.58,7.97-1.09.2-2.24.15-3.36.15-51.89,0-103.79.01-155.68-.02-1.6,0-3.27-.1-4.77-.58-3.51-1.15-5.6-4.59-5.24-8.15.38-3.74,3.27-6.65,7.09-7.04,1.36-.14,2.74-.1,4.11-.1,25.45,0,50.9,0,76.34,0Z"/><path class="cls-1" d="m135.89,223.64c25.45,0,50.9,0,76.34,0,1.37,0,2.75-.04,4.11.09,4.13.39,7.17,3.64,7.27,7.67.09,3.81-2.71,7.25-6.57,7.98-.97.18-1.99.15-2.98.15-52.14,0-104.29.01-156.43-.02-1.47,0-3.02-.12-4.4-.57-3.51-1.17-5.61-4.59-5.25-8.15.37-3.74,3.26-6.66,7.07-7.05,1.36-.14,2.74-.1,4.11-.1,25.57,0,51.14,0,76.72,0Z"/></g></svg>