<?xml version="1.0" encoding="UTF-8"?><svg id="Layer_2" xmlns="http://www.w3.org/2000/svg" viewBox="0 0 437.92 438.04"><defs><style>.cls-1{fill:#2a578a;}</style></defs><g id="Layer_1-2"><path class="cls-1" d="m168.76,438.04c-13.77-5.42-27.53-10.85-41.3-16.26-5.31-2.08-10.66-4.06-15.96-6.15-5.41-2.14-6.99-4.55-6.83-10.46.21-8.27.41-16.53.8-24.79.12-2.51-.49-4.2-2.64-5.73-12.73-9.1-23.96-19.81-33.7-32.05-1.61-2.02-3.27-2.63-5.84-2.39-8.38.8-16.79,1.35-25.2,1.89-5.74.37-8.13-1.04-10.4-6.21-7.98-18.11-15.92-36.24-23.82-54.39-2.24-5.16-1.74-7.56,2.3-11.48,6.04-5.87,12.09-11.73,18.25-17.46,1.83-1.7,2.62-3.28,2.24-5.91-2.22-15.58-2.64-31.22-1.25-46.92.14-1.62-.86-3.87-2.09-4.99-6.22-5.67-12.71-11.04-19.07-16.56-4.59-3.98-5.21-6.35-3.02-12.05,7.04-18.34,14.11-36.67,21.22-54.98,2.04-5.25,4.45-6.82,10.12-6.69,8.57.2,17.13.63,25.7.64,1.65,0,3.9-1.03,4.87-2.34,9.52-12.76,20.42-24.16,32.73-34.27,1.23-1.01,2.04-3.34,1.96-5.01-.39-8.4-1.17-16.78-1.76-25.16-.43-6.08,1-8.44,6.69-10.93,17.76-7.77,35.53-15.53,53.31-23.25,6.08-2.64,8.19-2.17,12.87,2.66,5.75,5.95,11.38,12.02,17.29,17.81,1.19,1.17,3.47,2.04,5.1,1.84,15.93-1.97,31.87-2.48,47.88-1.07,1.38.12,3.3-.81,4.26-1.88,5.55-6.13,10.89-12.46,16.3-18.72,4.55-5.26,6.67-5.84,13.06-3.39,17.96,6.9,35.92,13.81,53.87,20.74,6.1,2.36,7.54,4.45,7.38,10.88-.2,8.27-.65,16.53-.64,24.8,0,1.77,1.05,4.18,2.44,5.22,12.64,9.45,23.97,20.22,34.04,32.37,1.1,1.33,3.55,2.26,5.32,2.19,8.41-.35,16.81-1.15,25.21-1.71,5.99-.4,8.42,1.02,10.75,6.34,7.91,17.99,15.78,35.99,23.62,54.01,2.33,5.35,1.83,7.84-2.32,11.86-6.05,5.86-12.26,11.55-18.16,17.55-1.27,1.29-2.31,3.71-2.09,5.43,2.02,15.91,2.46,31.81,1.04,47.79-.11,1.28.68,3.08,1.66,3.96,7.56,6.7,15.27,13.22,22.94,19.81v9.41c-.61,1.25-1.32,2.47-1.82,3.76-6.55,16.85-13.06,33.71-19.61,50.56-2.24,5.77-4.51,7.3-10.66,7.15-8.42-.21-16.84-.63-25.26-.64-1.66,0-3.91,1.01-4.88,2.3-9.53,12.75-20.43,24.15-32.72,34.27-1.24,1.02-2.06,3.34-1.99,5.01.38,8.54,1.2,17.06,1.72,25.59.36,5.82-1.03,8.08-6.24,10.36-18.01,7.89-36.05,15.75-54.09,23.58-5.6,2.43-7.92,1.94-12.19-2.46-5.76-5.94-11.37-12.04-17.31-17.79-1.38-1.33-3.94-2.37-5.79-2.15-15.65,1.89-31.29,2.41-47.02,1.05-1.62-.14-3.84.89-4.99,2.12-7.18,7.65-14.14,15.51-21.18,23.3h-5.14Zm218.28-120.69c4.14,0,8.29-.17,12.42.06,2.56.14,3.77-.68,4.68-3.11,5.27-13.99,10.65-27.94,16.16-41.84.9-2.26.57-3.57-1.27-5.09-5.82-4.83-11.36-10-17.29-14.69-4.19-3.31-5.47-7.21-4.78-12.36,2.34-17.38,1.46-34.72-1.44-51.95-.72-4.28.37-7.46,3.46-10.33,5.85-5.45,11.5-11.11,17.4-16.5,1.95-1.78,2.06-3.23,1.03-5.54-6.1-13.65-12.13-27.34-17.98-41.1-1.07-2.52-2.48-2.91-4.88-2.7-7.96.71-15.96,1.12-23.92,1.88-4.11.39-7.22-.86-9.68-4.12-11.01-14.59-24.14-26.98-39.23-37.29-3.38-2.31-4.79-5.39-4.6-9.47.37-7.98.46-15.97.86-23.94.13-2.52-.62-3.77-3.07-4.69-14.02-5.25-27.99-10.63-41.91-16.13-2.28-.9-3.58-.55-5.1,1.29-4.74,5.71-9.9,11.08-14.43,16.94-3.51,4.53-7.68,5.76-13.12,5.04-17.12-2.26-34.21-1.49-51.19,1.43-4.61.79-7.99-.4-11.08-3.75-5.32-5.77-10.89-11.31-16.24-17.05-1.55-1.66-2.82-2.23-5.13-1.2-13.93,6.22-27.97,12.19-41.89,18.44-1.13.51-2.33,2.48-2.27,3.71.37,7.97.88,15.95,1.75,23.88.5,4.59-.73,8-4.43,10.79-14.38,10.82-26.62,23.71-36.76,38.55-2.52,3.69-5.77,5.14-10.18,4.91-7.99-.42-15.99-.5-23.98-.86-2.19-.1-3.25.55-4.06,2.69-5.33,14.12-10.77,28.2-16.33,42.23-.9,2.27-.58,3.56,1.27,5.09,5.61,4.64,10.87,9.72,16.63,14.14,4.63,3.55,6.11,7.73,5.39,13.38-2.22,17.38-1.48,34.71,1.56,51.95.68,3.86-.42,6.93-3.29,9.61-5.85,5.45-11.51,11.09-17.39,16.51-1.93,1.78-2.53,3.21-1.35,5.83,6.15,13.63,12.12,27.34,18.02,41.08.94,2.18,2.03,2.98,4.47,2.75,7.96-.75,15.96-1.1,23.91-1.89,4.24-.42,7.51.67,10.1,4.11,11.02,14.58,24.13,26.99,39.24,37.28,3.24,2.21,4.72,5.09,4.55,9.04-.36,8.26-.5,16.53-.86,24.8-.1,2.18.56,3.25,2.7,4.05,14.15,5.32,28.26,10.72,42.3,16.3,2.58,1.02,3.87.26,5.41-1.58,4.67-5.58,9.7-10.88,14.16-16.61,3.37-4.34,7.34-5.78,12.67-5.09,17.55,2.26,35.06,1.5,52.47-1.52,3.89-.68,6.95.42,9.62,3.27,5.47,5.83,11.16,11.45,16.52,17.38,2.02,2.24,3.68,2.32,6.26,1.16,13.27-5.95,26.58-11.82,39.97-17.48,2.83-1.2,3.8-2.57,3.48-5.65-.78-7.37-.91-14.81-1.78-22.16-.63-5.31,1.18-8.92,5.4-12.05,11.18-8.29,20.99-18.07,29.46-29.1,11.97-15.58,6.69-13.71,27.64-12.71Z"/><path class="cls-1" d="m219.48,76.59c78.73.29,142.53,63.98,142.61,142.38.08,78.34-65.05,143.21-143,142.42-79.19-.8-142.78-64.52-142.33-142.59.46-78.77,64.41-142.49,142.72-142.2Zm-87.79,232.99c0-12.61-.19-24.42.04-36.22.48-25.16,18.17-43.91,43.22-46.28,4.57-.43,7.61,1.27,10.87,4.43,4.74,4.59,9.84,9.35,15.69,12.16,18.07,8.68,38.45,3.66,51.38-11.83,2.4-2.88,4.92-4.98,8.95-4.89,23.57.48,43.88,19.68,45.01,43.15.55,11.52.23,23.09.3,34.63,0,1.43,0,2.86,0,5.04,48.07-45.49,54.95-126.92,1.67-180.21-52.56-52.58-137.36-49.06-186.23,8.13-46.93,54.92-34.83,131.73,9.1,171.91Zm159.59-13.03c0-7.41.1-14.83-.02-22.24-.25-15.28-10.11-27.94-23.83-30.42-1.59-.29-3.97.37-5.1,1.49-24.93,24.66-60.89,24.58-86.14-.2-1.04-1.02-3.26-1.58-4.74-1.31-11.85,2.12-22.59,12.83-23.2,24.81-.88,17.49-.61,35.04-.64,52.56,0,1.17,1.3,2.77,2.44,3.46,46.17,28,92.42,27.99,138.59.03,1.33-.81,2.47-3.05,2.52-4.66.26-7.83.12-15.68.11-23.52Z"/><path class="cls-1" d="m269.98,175.28c-.08,27.91-22.9,50.56-50.79,50.43-27.91-.13-50.53-22.91-50.45-50.81.08-27.93,22.93-50.55,50.82-50.32,28.18.23,50.5,22.67,50.42,50.7Zm-85.17-.73c-.46,18.93,14.8,34.7,33.95,35.08,19.13.38,34.9-14.92,35.31-34.26.4-18.63-15.04-34.39-34.27-34.96-18.62-.56-34.52,14.96-34.99,34.15Z"/></g></svg>