<?xml version="1.0" encoding="UTF-8"?><svg id="Layer_2" xmlns="http://www.w3.org/2000/svg" viewBox="0 0 324.05 383.32"><defs><style>.cls-1{fill:#000;}</style></defs><g id="Layer_1-2"><path class="cls-1" d="m65.98,383.32c-7.28-2.44-12.84-6.63-14.54-14.56-.41-1.93-.45-3.96-.46-5.94-.04-9.96-.02-19.91-.02-30.36-4.49,0-8.69,0-12.89,0-6.5,0-13,.07-19.5-.02-10.34-.14-18.2-7.9-18.55-18.2-.03-.75-.01-1.5-.01-2.25C0,214.83,0,117.65,0,20.48,0,9.81,5.46,2.43,14.88.43,16.57.07,18.35.02,20.09.02,97.72,0,175.34,0,252.97,0c12.48,0,20.07,7.59,20.09,20.04.02,10.09,0,20.18,0,30.8,1.56,0,2.88,0,4.2,0,9.25,0,18.5-.05,27.75.01,10.98.08,18.97,7.91,18.98,18.88.05,73.72.13,147.44-.09,221.16-.04,12.02-4.84,22.77-13.52,31.15-16.88,16.31-34.1,32.27-51.29,48.27-7.13,6.64-15.9,10.17-25.31,12.24-.69.15-1.34.5-2,.76H65.98Zm165.47-14.23c0-1.91,0-3.38,0-4.84,0-13.97-.07-27.94.02-41.91.11-16.17,10.71-26.65,26.85-26.69,14.75-.03,29.5,0,44.25,0q7.46,0,7.48-7.36c0-71.98,0-143.95,0-215.93,0-6.73-1.05-7.78-7.83-7.78-76.5,0-153.01,0-229.51,0-6.77,0-7.92,1.11-7.92,7.75,0,96.42,0,192.85,0,289.27,0,6.9.91,7.82,7.75,7.82,50.5,0,101,0,151.51-.01,2.24,0,4.47-.19,7.4-.32Zm-180.49-50.4c0-2.11,0-3.72,0-5.33,0-80.47.15-160.93-.15-241.4-.05-12.23,8.32-21.35,21.4-21.27,60.76.37,121.52.16,182.28.16h4.76c0-9.91,0-19.37,0-28.82,0-7.33-.81-8.13-8.19-8.13-76.26,0-152.52,0-228.78,0-1.37,0-3.04-.42-4.06.19-1.61.97-3,2.51-4.08,4.09-.53.78-.16,2.18-.16,3.31,0,96.56,0,193.12,0,289.68,0,.87,0,1.75.02,2.62.08,3.01,1.78,4.81,4.64,4.84,10.6.14,21.2.05,32.33.05Zm194.4,44.02c.33.2.67.4,1,.6,18.81-17.67,37.62-35.34,56.42-53.01-15.99-.87-31.35-1.03-46.71-.78-5.67.09-10.53,4.78-10.63,10.26-.26,14.31-.09,28.62-.09,42.93Z"/><path class="cls-1" d="m187.68,115.39c21.49,0,42.97-.03,64.46.04,1.95,0,4.48-.02,5.69,1.1,1.72,1.59,3.51,4.32,3.33,6.4-.18,2.07-2.47,4.29-4.37,5.75-1.17.9-3.35.66-5.08.66-42.85.03-85.7.02-128.54.02-.5,0-1,0-1.5,0-4.92-.13-8.14-2.8-8.25-6.84-.11-4.18,3.2-7.12,8.31-7.13,21.99-.04,43.97-.02,65.96-.02Z"/><path class="cls-1" d="m187.37,221.63c-21.98,0-43.97.02-65.95-.01-5.84,0-9.6-4.42-7.38-9.07.92-1.92,3.37-3.29,5.39-4.44,1.05-.6,2.69-.22,4.06-.22,42.59,0,85.19,0,127.78,0,7.01,0,10.31,2.26,10.22,6.97-.09,4.62-3.29,6.78-10.05,6.78-21.36,0-42.72,0-64.08,0Z"/><path class="cls-1" d="m187.33,175.43c-21.36,0-42.72,0-64.08,0-1.37,0-2.76.03-4.11-.18-3.21-.49-5.6-3.26-5.73-6.46-.13-3.25,2.35-6.37,5.62-6.98.85-.16,1.74-.12,2.61-.12,43.84,0,87.69,0,131.53,0,.75,0,1.51-.04,2.25.06,3.55.46,6.15,3.46,6.07,6.94-.07,3.37-2.53,6.15-5.98,6.6-1.35.18-2.74.14-4.11.14-21.36,0-42.72,0-64.08,0Z"/><path class="cls-1" d="m157.5,253.94c11.49,0,22.98-.02,34.47.02,1.6,0,3.28.1,4.79.59,2.91.94,4.4,3.16,4.47,6.22.07,3.06-1.33,5.37-4.18,6.43-1.59.58-3.41.7-5.13.7-22.98.04-45.96.03-68.93.03-1,0-2.01.04-2.99-.08-3.84-.48-6.59-3.41-6.57-6.94.01-3.54,2.76-6.44,6.63-6.88,1.36-.16,2.74-.08,4.12-.08,11.11,0,22.23,0,33.34,0Z"/></g></svg>