<?xml version="1.0" encoding="UTF-8"?><svg id="Layer_2" xmlns="http://www.w3.org/2000/svg" viewBox="0 0 497.21 353.01"><defs><style>.cls-1{fill:#2a578b;}</style></defs><g id="Layer_1-2"><path class="cls-1" d="m497.21,304.67c-.57,1.11-1.18,2.2-1.71,3.33-4.17,8.93-11.38,12.77-21.02,12.76-28.16-.03-56.32-.01-84.48-.01-1.92,0-3.83,0-6.37,0,0,2,.02,3.56,0,5.13-.21,15.82-11.01,26.72-26.89,27.08-4.85.11-9.71.02-14.56.02-66.68,0-133.35.02-200.03-.01-16.55,0-26.72-9.06-28.8-26.09-1.79,0-3.66,0-5.54,0-28,0-55.99.01-83.99,0-15.41,0-23.9-8.33-23.76-23.6.15-15.65-1.01-31.35,2.79-46.85,11.46-46.81,58.11-79.17,106.02-73.48,13.85,1.65,26.89,5.54,38.86,12.69,2.87,1.72,4.39,1.02,6.52-1.05,20.85-20.19,45.65-32.66,74.4-36.7,42.04-5.92,79.02,5.54,110.99,33.4.73.64,1.44,1.3,2.16,1.95.12.11.28.17-.36-.2,10.07-4.34,19.35-9.46,29.27-12.44,58.34-17.5,117.06,20.6,125.69,81.11.11.76.54,1.47.82,2.21,0,13.6,0,27.19,0,40.79Zm-248.92,32.12c35.92,0,71.84.02,107.77-.01,7.6,0,11.39-3.65,11.59-11.19.14-5.16-.06-10.34-.02-15.5.13-16.98.58-33.96-4.07-50.58-17.9-63.99-84.23-100.95-148.12-82.45-48.58,14.06-82.39,55.81-85.46,106.2-.82,13.54-.34,27.15-.44,40.73-.07,9.32,3.45,12.81,12.92,12.82,35.27,0,70.55,0,105.82,0Zm135.07-32.08h6.07c15.69,0,31.39,0,47.08,0,12.62,0,25.24-.04,37.86.02,3.68.02,6.79-.91,6.67-5.15-.42-14.36.76-29.09-2.07-42.99-8.62-42.27-49.26-69.64-92.04-63.39-11.94,1.75-23.12,5.74-33.36,12.73,23.25,28.8,32.24,61.73,29.78,98.78Zm-242.96-94.56c-1.32-.87-2.22-1.55-3.19-2.09-46.05-25.51-106.92.99-118.43,52.44-3.06,13.67-2.06,28.27-2.65,42.45-.28,6.77.96,7.73,7.94,7.73,28.16,0,56.32,0,84.48,0,1.56,0,3.12-.17,5.45-.31-2.9-36.62,3.81-70.53,26.4-100.21Z"/><path class="cls-1" d="m245.65,146.9c-41.17-.2-74.09-33.22-73.85-74.09C172.03,32.64,205.42-.13,245.99,0c40.85.13,73.98,33.15,73.88,73.64-.1,40.52-33.47,73.46-74.22,73.26Zm.07-130.72c-31.92.03-58.12,25.94-58.03,57.4.08,31.47,26.37,57.31,58.25,57.26,31.9-.05,58.03-25.95,57.99-57.47-.04-31.55-26.17-57.22-58.2-57.19Z"/><path class="cls-1" d="m456.48,107.51c0,31.41-26.02,57.21-57.65,57.18-31.56-.03-57.73-25.99-57.7-57.25.03-31.29,26.18-57.16,57.76-57.13,31.72.03,57.58,25.71,57.58,57.2Zm-57.37-41.03c-23.04-.14-41.7,18.06-41.8,40.75-.09,22.78,18.28,41.13,41.32,41.25,22.99.12,41.67-18.06,41.89-40.77.22-22.54-18.42-41.1-41.41-41.24Z"/><path class="cls-1" d="m40.75,111.62c-.06-31.49,25.74-57.27,57.43-57.37,31.61-.1,57.74,25.61,57.91,57,.18,31.22-25.98,57.3-57.54,57.38-31.68.08-57.74-25.62-57.8-57.01Zm57.52,40.81c23.08.03,41.62-18.17,41.65-40.9.03-22.78-18.4-41.05-41.45-41.08-23-.03-41.65,18.23-41.76,40.89-.1,22.54,18.62,41.06,41.56,41.09Z"/></g></svg>