<svg width="65" height="65" viewBox="0 0 65 65" fill="none" xmlns="http://www.w3.org/2000/svg">
<path d="M32.6809 3C25.3289 3 19.3475 9.35426 19.3475 17.1647C19.3475 24.9751 25.3289 31.3294 32.6809 31.3294C40.0329 31.3294 46.0142 24.9751 46.0142 17.1647C46.0142 9.35426 40.0329 3 32.6809 3ZM32.6809 27.8248C27.2613 27.8248 22.8522 23.0427 22.8522 17.1648C22.8522 11.2869 27.2613 6.50473 32.6809 6.50473C38.1003 6.50473 42.5095 11.2868 42.5095 17.1647C42.5095 23.0426 38.1003 27.8248 32.6809 27.8248ZM32.6809 34.6155C19.0718 34.6155 8 45.6873 8 59.2964V63H57.3617V59.2965C57.3617 45.6874 46.29 34.6155 32.6809 34.6155ZM53.857 59.4953H11.5047V59.2964C11.5047 47.6198 21.0043 38.1203 32.6809 38.1203C44.3574 38.1203 53.857 47.6198 53.857 59.2964V59.4953Z" fill="#2B578B"/>
</svg>
