<svg width="25" height="28" viewBox="0 0 25 28" fill="none" xmlns="http://www.w3.org/2000/svg">
<g clip-path="url(#clip0_231_150)">
<mask id="mask0_231_150" style="mask-type:luminance" maskUnits="userSpaceOnUse" x="0" y="0" width="25" height="28">
<path d="M25 0H0V28H25V0Z" fill="white"/>
</mask>
<g mask="url(#mask0_231_150)">
<path d="M22.2739 25.4898V27.7486C22.2739 27.8439 21.8763 28.036 21.7552 27.9957L0.427666 27.9902C0.230828 27.9592 0.0471498 27.7763 0.0164454 27.5821C0.0915616 25.4544 -0.261539 23.2011 0.519779 21.1753C2.27157 16.6317 8.44975 15.8549 12.7062 16.1287C13.1574 16.1576 13.8038 16.2104 14.2403 16.2931C14.305 16.3051 14.3395 16.3159 14.3773 16.3731C11.336 21.5911 16.6429 27.6414 22.2739 25.4898Z" fill="#636364"/>
<path d="M10.3114 0.0325872C16.7653 -0.535098 20.9626 6.43279 17.1661 11.6813C13.3801 16.9146 5.05379 15.0281 3.86893 8.73616C3.09583 4.63122 6.05882 0.406508 10.3114 0.0325872Z" fill="#636364"/>
<path d="M19.5754 14.5104C23.1754 14.2612 25.8873 17.8164 24.7271 21.2029C23.5916 24.5181 19.3813 25.7347 16.6546 23.4732C13.1088 20.5324 14.9763 14.8289 19.5754 14.5104ZM21.8716 21.4985C22.0279 21.3298 22.0119 21.1268 21.8891 20.9433C21.7356 20.7136 20.5195 19.6795 20.5195 19.5831C20.7701 19.2457 21.9845 18.3106 21.9928 17.9514C22.0004 17.6151 21.5739 17.356 21.2904 17.5736L19.8879 18.9562L18.4552 17.5492C18.0588 17.3423 17.7007 17.7478 17.8603 18.1397L19.2529 19.5756C18.9475 20.0975 17.0724 21.1393 18.1925 21.6231C18.3017 21.6493 18.3719 21.6145 18.4661 21.5736C18.7584 21.4462 19.7919 20.1879 19.9344 20.2129C20.3539 20.4839 20.9264 21.3586 21.3194 21.5627C21.5009 21.6569 21.7263 21.6547 21.8705 21.4985H21.8716Z" fill="#636364"/>
<path d="M21.8733 21.4994C21.7291 21.6556 21.5038 21.6578 21.3223 21.5636C20.9286 21.3595 20.3567 20.4849 19.9373 20.2139C19.7947 20.1888 18.7606 21.4472 18.469 21.5746C18.3746 21.6153 18.3045 21.6502 18.1954 21.6241C17.0752 21.1402 18.9504 20.0985 19.2558 19.5764L17.8631 18.1407C17.7035 17.7488 18.061 17.3433 18.458 17.5501L19.8907 18.9571L21.2932 17.5746C21.5761 17.3564 22.0033 17.6155 21.9955 17.9524C21.9874 18.3116 20.7729 19.2466 20.5223 19.5841C20.5223 19.6805 21.7385 20.7146 21.892 20.9442C22.0142 21.1271 22.0301 21.3301 21.8744 21.4994H21.8733Z" fill="white"/>
</g>
</g>
<defs>
<clipPath id="clip0_231_150">
<rect width="25" height="28" fill="white"/>
</clipPath>
</defs>
</svg>
